<mxfile host="app.diagrams.net" agent="Mozilla/5.0 (Windows NT 10.0; Win64; x64) AppleWebKit/537.36 (KHTML, like Gecko) Chrome/129.0.0.0 Safari/537.36" version="24.7.16">
  <diagram name="Page-1" id="dsBcz1otCv4wrkl_KEn5">
    <mxGraphModel grid="1" page="1" gridSize="10" guides="1" tooltips="1" connect="1" arrows="1" fold="1" pageScale="1" pageWidth="850" pageHeight="1100" math="0" shadow="0">
      <root>
        <mxCell id="0" />
        <mxCell id="1" parent="0" />
        <mxCell id="iIjDCpFlkyaxMlVBKjSk-85" value="" style="group" connectable="0" vertex="1" parent="1">
          <mxGeometry x="50" y="160" width="1580" height="320" as="geometry" />
        </mxCell>
        <mxCell id="iIjDCpFlkyaxMlVBKjSk-7" style="edgeStyle=orthogonalEdgeStyle;rounded=0;orthogonalLoop=1;jettySize=auto;html=1;entryX=0;entryY=0.5;entryDx=0;entryDy=0;" edge="1" parent="iIjDCpFlkyaxMlVBKjSk-85" source="iIjDCpFlkyaxMlVBKjSk-2" target="iIjDCpFlkyaxMlVBKjSk-6">
          <mxGeometry relative="1" as="geometry" />
        </mxCell>
        <mxCell id="iIjDCpFlkyaxMlVBKjSk-2" value="" style="shape=image;verticalLabelPosition=bottom;labelBackgroundColor=default;verticalAlign=top;aspect=fixed;imageAspect=0;image=data:image/png,iVBORw0KGgoAAAANSUhEUgAAAWgAAAFvCAMAAABQPqFfAAAAulBMVEX////U1NUdIiTd3t8DAgMKCw8SFBbu7u7Ozs7AwMAjKSzY2dsXGx7o6en7+/vi4+SEst0XVHsTSGwdXYkrNDeU0AeOuuENJTURPFx/wQat4AIUNUgEEyfHx8gkaZlxptcFH0o6d6ft7e319fVprwNgl8xJg78uRk6y0++gx+k6boQ3WGSv3zJWlwYBJWfD4PgXbr8DMomlqqhhdmwJSqy44G7a+odHehmIk4suVgyBrVERk9kluvN1m61lbikoAAAgAElEQVR42uybD1PbuBbFg5BE41xMLXtWmpFwDZ6SNpnxy7/Xl5mE7/+13rmyE2Bnu02BbQdW3gZCNHXZH4dzz71SRqOn18XTK63+Q6sJRwKdQKfVBDqBTqATjgQ6gU6r/2LQF9f3s9n9BM/yBPofW23viyZIvvR63D5lnUC/1mo+uu8aJR+u+eoW7BPoV14dXdbLJ5wj6/FR1gn066zmtyU4W6YbjpzBPdsOsk6gX2W1ze82y17PPW0pIe8e+XrCqH/b9/zOktNquWSsA+TjZ6mYfjV+ZNZJwi9ZzZcLB9Aqwg4H44C4VS/zbPUn1An081bvNwsVPZk9erCQo1fHZ9U4f4w6gX7WKgRdSg+/CAPdR6oOB1XT6nekvfcF+n6zN9JqJeEfSg8GHR64D1Gkuj6iTqCftbpZ7B2Eq5Rmzq5n69Uh44F36I1lPhlydQL9jNX843IBRaugtMafxxlPPbjIYOHr9tfG6nel6A6ga6kNKHsNR8Z/ukfrjr0ieDfRsLNrvlEC/YzVr8vNYrdTEnImD/vAg/k2Tv71tb4dtQn0M1Zvus1g0vANq8ixpI8xTzvpBiOxCqrGy3Y8SqCfsWq6JbxjIRVpbQuoOahQDGhjyxKJu/BoCrJOoJ+x2nXdcrPbL5ug40Wm944n+Y7lPHg167u6SqB/drVtwBmSZpfuLw56XtpB1fAKP8BuHlK1WiXQP7l60XTsHbu9txbeQRE0dy1DU25VDHuq4dCH2OEYfXhqHwn0Cat5A9Ldhl0aknZCx9jB7uGUdkPLArTxqR80zoY9bX8F6HfDvc2jolnSnfVIeJSVKlZAfaiESpknuwFxzITPepI68p9YHZkmlkNIOlgSM9LoERntgNT6I+HYKCoTX2Vdq+uBdAJ9Cuht6FjUKIdBksiIqFS6H9opGIa3B1WrQh1bcdXP9lY96QT6FNDjqGj2jiWRAGficmh1nOWpOPgIPrqIOoybHoan2zT6OHW1bZtmiNKLXtHoxZUudL/BAuRG+tgt8hgVoYOjR+hromLSeQJ92upoHRpcm8VuEbQoxSDpiJbHSlG6Wmo4t+W2sTlKWx5IJ9Angb5uepNG7vAiE6SnpFjUulQENWvQRvdiXd8wIuIFph0Ow9R1mjGdtoqA1zBqgK6tzuq+NwzcKEKxAl9bqYecxzO+Yeah+u1yy5pOoE9aRe5g1NE7qiwD6CJQHfpxXgQcFE+rIWwvDee7YPs53nBtE+jTQF9zNexQDe/QGELCPFaiKGDlQF1TwRVRB/nozJjmSB0G2qsE+pTV6B1cDfcLmosQO3CtPOkFEYzD98UvnvOApK3lfGfjZGl4XcpxAn3K6mjbjzt2NRUwaK+p1NrAmxm4kpa/sHWsiLYflMI7rFL9yDR69iSBPgX0GYNGa4iY4YFUaxETNG8FoD6WgZzU2aElHAYgw8DUDoORPIH+4eptO3KhWe4Wi0bbgtsVpW3QhUXbrWHSXBERNrwSBavaeVkEeHYT92tj/4KPVQL949Xb0X3Dgt4ZIsVbLAEqhl1E44CqTRA3QdRK+D7yHccdg6DDn+bT6TTp946EIXc0u91+o4lEqWEfrGClSRkL72DjrmK3otAgohw2PAbhvmUgzqDVMPZIEv5b0C07x85wd0K9ih2itNdF3HDhgzUIIQUadOUL6cOQO9g7bOgljg8fRgn0j0DnDbLdRouMz3UQjELjj419ODlBpRU1Cc8NzEOkUw+nTUN8hQ6/6An0X69yYKh3+x2aP5Q77sFt3KDV3qIiAjFlbCVaEZ+uISMdn/VQRsFDmmHoNNh0m0D/HWiQ/rhY7BovvIlWoSyhHApEO6GJZx/8tc1q5Us4N2g/qohhCB8qdogJ9Pc3Z3O2jh3CnfXxlCMZTXVQhu2ZtBCkSdxB2AGIeWoaglUBnYts1HGr5XC65myUQH8XNFvHp91uE/iMIzkGHVVNNEcIMZZEYTmMsFujHJKVZLktRDsOwoA+nOplo67isd73A7oFm7x9LdCj0RcYx0ZHe45qJgfkCwQNZ9GOeyJnhbixQvvKkyMv0bVwjHa81dIMlKOfRJt+F6DbOGW/PLv+z8UrbW3koyvoedcUNCXFGBUe2gArP4CYfJWRzzwZskpUTll2aRt4L4s/qri3NewprkbvA/Ro1E5W64xPDpnPk5d/V1wIL3Zw6FJaIPYwBUGM16upJah5qn2WId9l2topFRkyni9UUJbDX2StQjicqmFVt6+64fKbQI+36yn14ZVbt+WnV1H0frFbLDU3JzxSglFnZMnYiio7Fx54q2pOhZ1qYR1SNqzZGm68+R1zsSrG0bQaksf0ejxercaXbxj0iqJqtCps3G6Ssrt7BY/ewzc2AbagneZtlEAFWWG0Fw6Zo4qoRTUjj9coM/yjQF/oWMdNDB/87osQN7/6N+sD9HYL1uf52wQ9UQH5yxf4v42HPllQzf2L7/x5j0rYKTgywpwhCWUHcsgcXtgMuQMPW82EmJaCUStv+l2BYBm1VZFyf74XP3uxPTsD51V/jc/aNwh6LQUub/mQi+FhPKEh7u5fducWvrHZLAO/ewV5AwivJ1kZKDYrhchonqnsxls8p+wG/zIKpq1589bH89OWc3WIjTgLev1hct3r+XhdvjXQF3wAEaQpyzJh8JknEbLpJi+5c/TnTVAOtQ0pTpdyOzrPFJV4PufUjFhnMuLTHhF1ge8AJmMdz5Ic99+2iYdsYuKYrq7OPxwxj+Njvr7IX1T8f/npi5U0matEJkTGqPn8hTWQdJG3z71zPtnvIOgmoAh6IYBaTW/ztUQNoNqyqiWKoKWiElWZVfjxanxNyCZEbM8Id/ZQD6XUq8ur6+gaPeoxX6je67cVQkbb/82juGhWATM/IcFv31muRs+7c5t/Qa7bLDo+IKPRc6PVqybtFYxDoh/Uxls9zWAYNhNFRdywIGVz8wJj9nw0DLLWoenPe8j1WXs+5jq43o5j7uBrtV6v59s3Bbr99g35iqb41cWvscigMh5GQNLdw+/mT9358iPn52VntUWBg+/roFcX+Rp+jdTMjYrjRqWqqtp5Ma28KCskDosIyGfxfH8+bHj/VjVuv3yczafz9U05m82NKWazujR+CtLT7dsBfdteRtCiZiFnXlQ1V0Ym3aAePufOX3mOtFjy2ziLmJ61ctuL2zP+B4DT6anNyHik6akhU1XoDQ2wI49w7vDcG/YZmvPz9vyPz3VZ12UXQmPKsiyKZVGaxjYWqOfjt6Po9vK/3yodj9VqKkumzXM1Z2Xoluf5z945/4PVvNgsERaMRqTjoZ1c316194rtAZ5t5zpD8bPVHEY1zQzHPIFE7Usgxt8JgctxfP/Q/MPXT3c1sLry5qYuXNeZogR21zDpBqg/vBnQ+f+puaKlxnUseFFsc1GcEEmuSFUyig03MbFrPAlhGHYY/v+3tvs4sPuwu7X3LWgGk8BUGNqdPt1Hx376+QNgAOW8IJWB+NAT6Bza8f4395CuV2+H378PkOc6C56ZMOMImJrdLuZgawm/wb4GdKpUQxWRCzWsXawcfqwta21hURoO9Tay/73Zrzc7rNYhxYwmJaCNA3EWoJHdT7OvAvQfp18/CqNlTByA4zdWEE5R6eY4Lv7GvbzuoRmyjmOT8dXw9mDzOWue7mcPpzwPnCeFi4ZKaXyA0VEnB7GyeB7y6HwdIS2hCNK361dryIa11rUAOzln+RhI26aJZ6Sb6rT8Kox+fTkxGHJIK5fLLiEiWjxePTZP/8dmnbT9FtxJ+U2Yn8cm556VR/Q2UIGYD4vZ4kbxPcKIn5C/26BUr8uq1aSzjmUMJuYG5hqVsJFOtN/uyefWmRF4TmCD2+2utYQZX5ugrl6/ika/vPwEyqGUqsUgTgWhhvh8bIb/vVn38LBcLh9uH7eHZ0EZ4oyiBYhVINQ1h5H8MLudXfd5mQ+hyB3NRdSdqnTVhhKltzJI5B2SOvS7kMkwdvv7NXHebjbb7Q7qbEbIM+jctu2RwhHPSOMjPn0JoB9uUQtRAB1EoxCDhcTM6KLKDL6jmf2X+5UQYWB8fbfaIQJCmIkyRaNujNFT9znilMVM3y3m93dlcHVnbVQ2xaIzsepTNaC86SEhFoa6csHbmMVQMHaHzX6/X0EuTGp32y3w3mxJZywTmiCUbs5CXXdPf34BoJc3v14mnwFVDTYr8pzegAYB9X9s3v/jruhyeT27Wb0nMBg8/s0YeDxQM2AbkgPErihCgEKnPHu6npPQ8G1lFh1UwtrKQC66oSTienBGW4cwGnJla89r8Pv1436/QeGjbjQjymBL5QDi2zaME6PjWaSxuvMw0yUDfb+8+fGjJNBSC+WCbee5cSoDLmPTi3b8W8d9uZjfvO8E4t+H6a90j5oGyhpMcq1qONEIOhfQDz/czubXT3nmar4yWK4926QVKyIKocVz7rtoC8lCXmFMeX983K9XW4pGS1JDOVAGDYXDAedxwvpDqRtmyafLl47Zy6/a0XNUUEmZkPNTr5TbpHU9LB+4kKtvZ3coTofnZ6SRT4gPIPLREWUEjOBc2yfuZxtf6jzybijd7HZ+uxgiJzmQRVIou6Sr3nRau6jU4KOD5zBsHcaI4J1legWcATTXegXRWOMxtePM50DtOKPshdsAerh8oOcvp4LCUdARcLZCrEfBKx18OAJV0WCQ1uFweJv+gs6A+Dg+N/VYyzSij8Y407p2yGnQovX8qO3d4mr+8FpbEwApoA5GVW2qq2GAi3bathbIB2UNyrDn5F2/f3x8XJPMLcViszljLDiD2Z+UpnpMYh1lHOHSgb556UBl50sGZHjfQuYQs9qAsR/r7eN4gBojj7w9mwTxrKdWce5R//Du7k3b94OJhIw7JVCC7PV6frW4RbTOgTC3WnwsO90ZpTunEfhN1ZWcrskr05QBL9cDZqRB5sBR9FmioKC+I852tCGMHxCT01GAPl38NOkLTUdpKdIIZxBWdhhCevvE+G0ybrTIiHzu6OC0mnraXkKEA0cBhXFD21M4dM1tv7KQDYSsWszmyCqVymEsChe4awVrp2HtoqoGyIfync1wlqOcNf/+HUCvxGEcoMiOBZGZG0BvduZo7JGUDmNz9njTEqAvvfF/96IZCKX3L4PLhc/NB8qH52SOx+N4NM1oyeHmY7M0x8NgLBA21vSu710y7dB2pfF1bmxpjQejb+7ns8WfOhkfLCK5SbF0LurexQjBKAeDSGiLLuGlGsbuFXFeIxGuKcwrmjzI9V6ebxM7SuQ0GD1+qDQl2n8FoJcvP1RkQCkFbf4xB0EZVY6uuCa004EYc27Lk8XWUJSdsBmWDrIB4egiCG3LaMDq6PLTNQh9fYKCWyREG1Qk5PAaXV9qazvVGQvlLnEWOButBGfUQamEE9ibaW03zOBs3Yl2fAr0JCByodyFA/3w8sMbxeAdChZFQHmYuCz6AFhjoCiGEG0MMVgRiuQEZwKMAykNPgNojg2oWlp2SB7D7e18vrgpZP8qcS88eq/B4l6r6lCqoYxx4LRYVLzrQbf/zjKI0G2D5esbUQ0R6K3g7I6k9Ie9m9xdbITRN18A6FzqILM3QqGfcCaZ4R7wu7IZ3OPgpD+JFAy5OFN56C357CAcqR/6vq8iUjSsmlIIIJm/WcyvoNDWeybvPEWVUqUHE2A8glfGdxLC8e/xLsk1cV7RbeBnQadGKye1J8yrjfSk8dOO4juaKR4Kr5sgF28tLxzom58VTbM5pxUbHGAmmyv8XkA4UYSd7Z2Vz6BZEs3gCvhmb5IFzhQO1DdobchN8jhHsX5fzK7mi6sK+owvuGihyqpP5dBaH8yA8G0LP0Qk7yLErNp///643mxWm+2kFev9/nFPS82mR0tqu0mkgfP4WQpxZMgplg/3Fw308lVGDbwvOK4V4MpoLpo6Dq3pe5uEvybI1oa8m3EcSGlQO+AA4QDEEA7wuSs41WU5OAoEwzCfzWE5Xi13TmArSut1GVTXQ6JdqasyeNRBT3m2edY9fqdw7AXYaf1Lo7dJlmgH3V2IUg7Pi/dkGv64v7+/aEa/ajW1obG8okAfDmNu+1boI5WOld4N+CxPXCDk8mQwZkiuH6gacBwxr3lht+dcSBGrOwg0YmHHzVj4cw8L2UVXaKXfQqHhpBPQd7lSvHFYAJ+/71eSTTaf6yOoUDeA8zNw5iXPHxh7LrBbJiAXFw7006mLtpApAyCeGRB6zIJoMs2bTYahDipiCLElxDzIaeBKA9S5HXZ922WFixQfWItY+KfFfDabX79a6oaJMBiVwjfKvg1Qm0o7U+hDyGHtPIw0cV7vnBUYx2kdpb0B3PG/eeaC0bShi90/uH5iyYOKEn39sFjcLy8caCTmUukdHV7BZmfTOJY8N1U9YxDw6kmVKR74KjwBDpAOEBoC7aQQdioAUVg7y6tRwgl8ns9vZ8obsBbnq1BI3NGxxV8oWDttU+wc1DrGTD8KzhL/GAolfNPgiYTsnlECTqef37799dc3HL5xTTgT6p85lWOBtVxeskYjtRVFpSsZUQqwda4OTnLIpyojkCeRZWgIQoo9ExtymSSr9P2uG7oc6drnReLmd6avBOiH1zpB/FMB86hVB8+nW8U7d6iuqDhhmv+TubNtbhNZonCMAMsIJM8AntEOIsiSQwxI8YogYxL//791Tzegl+RW3W+3NLa8qSSbrTw6e+Z0Tw+2jNoPvvH4OHSSnngX/M4b4dNrs1zGWMvlEpyZ8jtjHgS9+6BwN+9Bz28W9Ma2PYS7FJQtL3dTBLvMUFuSDWLY7iTFPIFAgU+GLPkLvQllwQEwL6Fc7fiCBjeEUvbheUYO/VyiGEqVRR0rIRUyh/EsynOFilLE6lT5CfvGAvvg0+vlGrbCp4oQLxnzthczgd5BzL2kd5Q5Ns/BgkHPbxV0YEPHSM90pmJSi9oZwEviBVS4M8Jckb6l2Pdk3xTml+iTHt4CynqmKHOd0dycdODGvgxVHpCgF5uW/NrTIdWS2P1Cje0VMU94YagVTEbpzHZIz9+fTmsUNrdGH5sTZya9Jcy7QdHvxJkE3c4X4LzgQ5/5jYJ2I76GxqdXrkDdvcfOp6lvpskoAJ3yNOCiggZ4SaomqWs2lTA3uoy0TBJLIz9gg/OltBKzCqDnSbDIHVTavkX3KbQDrKGLDRH1oW8UnNpIZSfZJ+v5L8wc7JhzHI+K3p0VzaIG6h3N5i2CBVbAJ5g3CnpBT4yisa0IqcNKf/67T4yQn217aAspMzpESilxSCMMCVxT4mCXBnjPYE/TIZxZpTSY4fj9JSDdbiaTxQQZ2olCOvM2lqZxJCeiqxSwaCsSFO3o0TP254/gx9hH6jmfBf100nNvHJfegQ+yDwJN/7kJSG960vMbnCb9MnNASNmOm9NjvDwavrNcq26OtA41pEugZUjNBQ2Ns8zxv7wnqKtqq4TI4k1wEO0UKh4P70FSLEB5gqIQ5aBJ8QuoFeEbKv+GiIGaUYXSsUJjG0mcKXA8jphPO+LJN6DneAA9KnpEjbVbbu1ofh8804n8IuCF0uXmGv/zWULNYG7e8dguTZPS9zuwuuOxaY5VRw1hSJnaon0fOtM+P2LKoTISniFBEOqmrO16Rjgo51cBMJOgFQoUOLe0TCg9SZ3/FNEv9Ogo3MCllV3CN348XWC+0PPjwwB5dOjd2TuY8+5jt41jRA4i/Hy/gXssgucT6VsCDesYy0KfeRNyn2e/P7ZVU1UfsA1IOnG69rNe13ldlusy8gS2NlTmxsgM1IXr0gErT5lbwq6fJ1R8B7NcutgBUZa7QE1TG6nHt5G1bbSiZwoSZwS7EfPTJecXcCbMZ0HvrhTdo15WH+Wc/JlIL5g0UPekbwg03aoYukkDbgLNhyx2luXvyy4VXLs478djdayaI31cr66k6xIo81KJKCeiJJrQscpkct8a/GRO7TmTagVT0Z5VGOWUvp8ahw68c9LzwHncA08b4UP8p6CvFu+I23hpzQI2aADu/9G7x02B/rIp7f7JimfaTn8ry94BadPUHJYRDrY9VfwUZA6pd7QoZu3aEhbNZ9moFY2S+uGejSOYRCjaacoDEc/1qb2PP0im2hKo1GE6TqK+c7B7PNnGGfTL19f4T4PeXnPGWsbVx+GeAg4T7oEPmr4h0PNNxI/6c51h8Q/4Sl/Huq0qqrbBx/moOoK62y67quqaqhl13bSprZR0UFynLlfXdKpCgt4cXNgyPXGeXEWioPF9IfF7LBgO/p3MsR+h5++s5j8FDc4VC7qvCJd/caa13cI46nuqQHvSs8lJ02QeNwMavjES5sEZd7hjSHquaMX1HjFOoKjYcgbJ+Uaa6r8Rk+NTY6d7Ue4bjTs7lqK73Q4N2tFn8JybN+3mayC2hKdtDxHaIGz4kaDvf2M7yVcKdq9/+8bA+aTn/yZoxhxX22gyubsbSc9OpNmmbwX0POA7IsN4gW2vf70JPhSkc9csUYmhIny/1yb5GA25OdReQiMf9HRLemCrjcLQtSjayRDJTaoDjIPW5kFA4GuEEVTgqUDFDavG9gl/cVCQg3M9boR/YB45x0OH41wTbi8xb5fLKo5Wi7u7E+m7Afii1/StgP6yGi7jsKJt8/v3z59agS3FDAobWHwQmiFlvyODEGh6dXWEWJcIlSQqN5TtfJp/0RKlyucz+fNsstiUBnrWdCCrIWpUNSK0LT58Efh0KHAE/UZ4aiaNnF9em3jYCeORM2PeXnOu3g+T6fSuRw3E/LW365tS9LRXNN+lsOw1dfwTOgRMRSn31N8PqRWamb2ivkamEPhOWaNp6xJR4pek4Kx97USp70UiItegv+z8oHwPtaDlRTRvhoid0mVDJze2MgYWlF/ouY91A/CB8/KcOU5F4Xb4INtYknEQ5wvSA+/Bp28G9Gbj2jRCanl8M/nXr5//JgnKk1SXx6Yu9V4P7SPTn6eg7E7yj/fuIt99057vhNjhECbcKFRJbxyLSXAfuZakUUb4hcDuV2o+B3elY94QodUQOPqNcKhUmDU4PzVxfI25VzTR7n/Qc162s+l0JE3uMR1J35Z13Pchmi5T+NqEv8HZEXTgvW+7tGkQ3+p93ymlPhJPF4hUkrJ72M2xg28YvFJhoTJHrVcTZ/qrzluzzvNwjYQhHJUKn+pA/GGIdirJlJ0MHbtzshuLlpHz8pp0r+X+C3GO4ypuV3fTS9JsI9ScJUmjQLyZA5cvU9vpJ5Qs5f7+9TPNMjr2TkXX5U1x7NqmaLLWkKL7Rn9fvKTY0izvY9c1JQpsuG+uBEKH1k4+G4wjCCK8Az6HDF+FqMptmq+j28qKn6bLHbvXc939OEibGxz/xPFpIxwEPbrGsEjPVbdaTadXpKdnSS9u6GTrecOS7itCN0/f9k6YFmuYRNs0hWj2HQqW8ljnzb4ouDct+SgRv2e9TvOidDPfpwloSQ+0S4XtPgyJY7FpJQqUPBXGomuyNgqU0LK5VOdZ4Pqi8u6nkgZpU+H9z8VGCM7L7VnKZ0GD88PqYXpNenqWNB+43E5lGPDDFGHTNEjqu2ZNYxwo5zK5F7VqyuN7dazrYwkfKaBv0Z/LFoT68xuyB8pBV4hIv4U0JMbGQYkjCApj6bWE0g29LBkq1IVKCbo7YdvFj7HVf8obw/zXy9eHk57jC4Pejg69HfIGcwbo1SXo1aWkn/8X6P9nP/pOWf0tLOr701VOuvwL1tQKzaTO6q6uGxSCVd00h7YIm7bALqnBuXiB9iHmUFslHFiHtpIrlGYzztAH6p2CveNJGpV2YOU29UeTkCZzxcVG+HRlHMT5n4udcLu8xHylZ/bnh4u1Wq2YMffxuDMdDO3SG2j8t6znwaepVeqYmg+/kez48BV7X13WXXdoGpnty2PbtMeG5qDXZe6BoLF8r6BrEZEr6JiQd8JgU1s6iviho8qGRfs88mjT8SCqHPfi6OqMGV+oUDlzPifo7ZU994J+4H3wmvNqjBxM+qZAF7byacifL7HghfKFam0aQ6K5Dt4B93qfibKojwfdNmWVdfjFEKBLP/clPAPRDib9ltQBdsLZYjFZ3K9gKggZQtNAh6FjAUXPjYCyte1kT8T59arTP/rGazUaR7y84ry95BzDN/pg93At6d6fg+D+5kCX/D26E76SBfOgTgdV2w0F57A/CecwbUjOha5L2ehmj4rmP8xda3faShIMsiSDEBfPSGaGzEiB4HMVI8yyeAmPHP//v7VdPXo6OLn7Ye/FyXEex19SrtRU9XT3LMWaEE5EKPMCTlmixsGREEfhUshIYM4K0GqSaakoffOxaO1brwTNQYW1GkFl84Hh6MDM1m5fGegezqNs0NeOGwK68JnP2OdMIuLx093Hw4HyiljylSxX79hHS9c9sxZv5D2WJjIiJsLGIiySkLycj6gyBqHv7gdKean2TRIEhcB9FVr78NibDV2p/1uvBD2rdMPh3Ep0R6AZY0dnfANqnK8xGpQG0H8w0F9vBmh2d77JF66Ah2mJ42bzfVOyUBPAho9FhBVu4ECTGH0yqYg99NLJWHphQoS+n45dpYEUWpcRWTsKgIlCA6PKja8Tt2dXtHyugneVwRFUurrRBJWeanATjcM5+whoZvS9k44bAfrk6klhwC8OuosVf7st6bBZcjdYstgu0IHOd7LS9fhL+JIipd9GUbLWUYKSfzKcOJyJ0JkNBaQ7ge+QZExMYASm6QMbxDAcVXdM9cPpxheHc8dyvCc04/w4fzme7upA2Ad61GP06oYYPcI2QXwo9CflZL1INi6nt3U5vzCodKJZu9Vyq6tsiEKTEDkuYk0s83Vc6FAbHZgT4+wsRxEYVD98pTRlQatDGxorUEwK/FljOOoLQqfU3UDYddAv705BArrFObvC6PFdz3XcAtCf7vmdDr5W+bH7NyuCdgX/74clZhsSsTgeTqXkERY604jaC0wBmHQdK439olGOvYCpXbExAaIAACAASURBVGNWxZUoV3ujC+URi8loGGnxri9uYnkn45eu4Zg5fXaVpIeWz/0idCsabOvmNc7ZX2L0LRyGLBx8d+Wb3X+sWOZ0/olXHIWbR/YaifbndUnUCxY+5WlPpmVRFnQImpT+Cxi5FJGXy9FkfFfVglcFusDQUkbqbrU0saLQojX2US0dzs9dfa6M3TvdaDJh12yAA/vxYNjmwXeBpec6bsbewXI4qOWPHwtNOK9Banl8uWwuW/YZebwhmDeu5H+i89Fa8iERGedI53mo6IiEBNu3yaDKhNP7PRrqsCSBzDPR3xeUvEHmRZW8u6X+Fuc6EL7LhD15ZpwHjT4D7auMvjUf/amsGb3baZ0vczewgm4Zz2xx/G3JgFxcRRR68v17NjoVgcyjVIeUC6McA0YmtimM3Zh7OaarVxMUuIL1icW+CTHfjR0cGBXng7Di86ytjPZwrhvtuozmPzPOp0EH5euMvr1k6DxHEMdBviPhWC5Fsk4w+0Nwb9FLqrchCH2Mzy812Bs6LEl0ExOlnqBPMB6JHbmTEGxajZBg0J8AidaJJXVRsdu9PfvXt6qS1MoGfbhCUi0btbWrKV3Ls8M566J8zd51JfpmgJ5yWgm9gA8r0uh1smas1ySwUmsZuDvZw5HYGB0vrqdjnQvoBgnIUnhyJwL9NhlDOZhO9wXGMhRlQoxiBZijl5izWATcZPftXWHUlaA7ulEVR+c1yk8MeoXzYZR1YM5+VVS6p7zyRx/nfwroryvOhbyHjZsMUMJYYlQzyQXPWy9sUB64A+/7xeCtHxWdj1+UR6GRNEN4xhCrlV+yqRqwu7sfhUUZC9i6OLC8RV7HeErW2nVtOLp1JCTCL7PPNaHfMxoYM8wVn0ejvnL8pnr3G6D/vlvwve9WVXm8ndIPCOo1pjNdINwqTMkWl4ODuthikzPlvDJG8uYrwrQgDR5CoKtL0dWbIVnWaC+lo1IrX2iLZ78XfBfb9HDM2i5dCiptIenxse0Amzeq8eRwPuAc7J9+ncI/F6SzpvA/uaXCPwFd3WSRTruHfHBXRZ6CzkMN9cBIvUxdcxhBjc2AUkfhGvPcpUG3V2j2IPN44LrtBioh0yETxUOdBvNYmnSDFPtbzedZU0hqcO6U+h/bOYoqcc+fKt0Y/Gycr92w3OBV1qTg5hkAHdaP6upqOJWb/XnKTcggvjioD6/Syl0eo5eOBIQHsMpx3b9yN55i+2gUYqyTl/ojC1rsCrT+Ax2Ez52U0vL58LlL6Eag57U6N75ueA3o7B3QnWvwr5NbuQVHQRk1O9ShmwdfrXJTQdKgtOEKpYEfHgnmyybVEstNEi9KRagiTwZpNq6dHRF6FIPt9CXknAlnDOJSWAlwF1vh3AMa+nzoGejWRDeDKz2crzA645+dy9mmV+lW2g32AW8RDHgvt38+niPH6wWXkKoRLJSQktz4Nj4/bY5oJcdGtSg3XoFcKPau880J44r+jkRFkoPW2O1DUrRAWKFE2MG5y2cK3p8752CF87GphzZ+YzD8COheu0H3xvBm+jqKMIrSKLYyhWqc4d0ulxfC23k7XfGZq3VGGxxshuJMSJaOvgfSI8r7p7thhfMYhCYfkhhkQV/zMyomXGgyKyVGBtuWJHwAdowCfe4Lh8M5bmHu8zn7UKNboDsNpbcB9EhF6AWL9S4vgPTlsjlsDmjKRa1O11Nurp1DJKaMSQU8MslkKWSchrEIg7QSaJe+VyVG6wM6/sjXYRObRS0psIq3Uc06605q4Rj1ca74/PJ0rieE5htX3xgOP2B01iX0Xa+r41YY/eqHSpK9Mzusv05jwtl9XICzqAQ60dAOLZdFlHhemoQ68sjaoWMjDGTGjsPVR+9We+N5WhtkQd55TomFm5KwVua5Hbjq4/ye0I/Hs/d0XZ+zD6WjA3RD6JsBmiIcd0Nzp5fI16+XiwN6XTWfV3ezPOqGCMPLv0wuTZokEBEdnCgSDjgVulCoNFY4kmKQUwkFhltQg31jnB+65+DzNZwrPp/P56erOH+s0f1u0mpi6GaA5k3YlPd48wkaGLfbbVm+YrpQM8g8tlkvMxBWL4XKk1hxg64ofWXX0zFgHty5ULgPKKAYOl1FaOk3ih8Ww3q152ZL0kMTVEigs81PfH6cY1ijnlthnOe1bmRXynWjPs7TcY/QN9Lxz45OqSB3a2UEDyVvtwBX8rYZN+wtC6iHtlFpTCxig0XmBV4WE2ZEwjEY3FUKfV8GaCn16WtDyoPEbmsXgZ8Snb81zbkNoYnPFc6de8LHp3OXz5suzr9gdNuIXnWDTW8LaOed1Q6FUfdTVLYOw+Am4UFZKbmIb+ICW9TomxCbnU4FSbR6niKHOemA5VBYWCwJXmGt0UG4MNjvOAOh22b+Rp+fN1zhYJibZHj2jhiYaPl8aXDOPgS6JfSkJxw3Miw04nEUFwXhK3icXjuwic/r14UzHbx3Rth8iWRtVL6TSurYGPPq4kHFpsnXdaAEntckX4dHavgJt8B/a3DuO+gZ89kh3FysYPdGoxuOz1mLcnbd3nVwnnSE41YGOl999KAr3xe1dAhZJW/8We4/FQtIB4a/6ehTSuTkKLRXIA/GhfbL6WDoQGbl+OOEbedBIi02kvK8JnZ3Lbs4N3x2OD+2lHbKcTwfm8nvis/dftHrjO5MsEy+1j3otzPQWfD9d+zFBsvk3GEouLxBhx1xebH/dFogF6LAtLBhlCvydqTQfybk8zBclY0HQ5dUAPVkWmIwBWMWpB064Qey/KDE3o2HLz3ZAJ8RVFqcHdZPmKGf1+XoGudRXzl+ArqLczvQ+fUvAf3/r0d/OtV9BuF659arsXbwy7o6JtKq0TRTSnlYmWv8qCz49e4i8XRhPCwcPI2rf6JLK6vXgJydNViVgMEJvKROn7Dp5OEnQlc4Pzp3V1H6BZtOHvt8Hv+qXOfw597Gui36brVadTdJ/ONrJFDxrxoNzDInoHlDFSXnINLKGBEVcTYh7Mo0iso0LYsIS2R0HkY8Pq99dRoOhhXMwHkyiHP09xtLid5yMRrCgc2is845+NDjc0c46JeePjPOro/xN0A7mOsax/+2RuJvADr1Q27nwH9vzatVIREEkcZ2SzQzjybTkSI3p2JKetF/mbvWrraRJbgeSYMtyQg9QDKyZIQABcvOEjvBNufw///W7eoZvQiPcPYua+dk4WT3w6bSqemu7q5Gj7AQdhW49K1rW3eewpn7Kmynm17lSQzBicpNHucw51Zxf/Gtv0GoE+iWNzTU9OUgZrP1oW1jrTqcX625m5+jEXDOGqWjBfpojFF4Y7aZtaPsl30vsQ/kRj7staWbfpsa1/Y8pQBO4ipNxTK201AKn/4dlYaGoeOZG1jOdRaHATz9zbmknMNKJFcqIOjFC5gVzurTwLwzqcqZzYbv4MR5V67TCfQQZ28Y0EcAtNrk1Jm0DHM1oxvmdVVFgbSSxBpPnXJPbFClUZrGyyiC1JH4rvAT085GyDiM5i30yhqWpgFRPCyNE7UOFJwRQy8WQ+KgbyZNMGua3mGAlf5/ZoP8OXPG7wvQY5DXqE/QsPo5Mk+lEiMdSDqQd1BYBzzOAdvLAnaWOeUOf3vG1LAplKlwSSM/8qH1CzvxpRVPCGDFHEryP8mEgBAdoB6E9x2fT4e16FkvoDucNcT8GK4l/Umze11fr9M4Z+M/aBJ2OFNED23C/ntPpb8miGj0v7FhiMvoGDPAzuwyqqM0SKQzhasobBltkYgkTewwsuvApapk47A4OiKM6efI8ejZTDBfYMExGxcJccv7jirtDmetcSzO7jXA6rPmv1Mw+moSjnPsDz6N3xhjfNm7GnU4c353epRAYxlLCDaNMEVYsKk5IV3J2Japx/4E2xh396o0EUEaRAnG6KJsyjArgiYCMabjRAZWLCVld2CdOeyclwrnxdlw6ep+1T6EKpqJM9a7XYPzOa/a73tjX69GdNYWhFkfZ+/YDAaxX2jJZqJDRNrUH7avcAusqPBTri4nWRTGIs6JqhN6AykBmddjYwgzAjqmvxw4xSkhQF9hkTAlgr4AyouXOL+A2XStw1oeVGuFcZ7tVTxn71NH1yQcKZy9I3Ry/GuEUwcubKosiRGZp6enXZ0vl+DpkOhDVs4UWz+ne9fNhUhzN0ohcMRbzuiUAu2MlW3xxJJpSKUO1emEsEV5hxkvFLCDjOOMO7ENaUjVdTcPN208z1Z4EPfO6H25LnvZJGy3v4/Om/R0a+K2m+p9P7FL0q/HJzYShO957lfupNQDMfEc943t1I3oOxjoOrp55fAUmOFNa1gZU06ImXPLwsl065aIY7EY4HzGOOt68KaB2TpI4NwQx2x2o3HO3lX6WyVp3PczuJ4emdtueRpJIeOHQphqNwgjG4/PPigaRaJfhPXkhI1kpuXGn8OSgJJkufemBo/KNBNgqoFFXMEmbAjoOaRRc8kXgRri6OGsPjeuhtkU6/XOOnRp3eVNt0f/jtLf4tz5RkyPyjeiZY65ZQv3p79cVpW9WylbiGXOI465Mu3HjpVC2tkvIzvOtxvv2mtGOFRE4zM9iUzc7sXGVTxP54joWl1e6r+EZ13hPRN8tx5IS8rqzEM/fd6Ps0E8v91SGfSulJJ0fEBvTCxKPPg/cVSt2G8es0cKaOR3uY8xR9/3n0+IFdjkZFqW1553XZ54vEXIPVBEtPq23Fs+JvLknJJoy7qihzXmWG5w1q0V3SG8nB0YZnbIctdrs803EM+zP5Dr+vHc9a6847Kc0QxNFXhsmfAupuD9EYbftbedn/MsKS5RJEWprWQMnToZKo5HLdQOd5xxSFYmTBzufM5nj+8a/9ZeQKvRXIbZbHiD0mfRi+fz2Q7jopN+PL9KHSqejaalYvTsGz8H9L+Ne7m34b3KXvJai04CpuYgVBbolOXVpUJY2Zx4araOvQt65DEyTrdzN8HZNko2sBVEfF0slN3l0C7wQqkbs5vdQY+fuWvz0OXPq9VMKt+e9+U6tfOtFQ7HuW4mdFVi949GPv/fQE9Ajq5lMcS+urjhq3MqPrtx+JRM+xVsKI0GbOZrtXelJs61QDodi1RQsjGXCe4NQeOom/seA6B1R0V9ZuuD5Ijuv4Ozg8L5I6CHCrTCua28jwnojTIFw0RowEPnGmI0U5SXD4gkjkqP4fUaAlHLmqpz1TRWHKpVcOabUmgcQcQTFzcnJ1qMma9Xly8+AFv24nn1NDHeIOWs1zQcKv2OgQ3ZnpJ0RECX2nzN5eNLuBXEttCQ7tQKJ+bQw7SyjSlnpzqYVVArsHkeiCP6eiykSYxBMKeU2hHQ8R2hyljr9G7BdP1LKUlaHVVS/2Wz53Y+W63O35Pr+o9j1uLMT4Ta+T5GoCdaIJUPTM/YX7OEtKqIKpIqxbEE+uUkEjI78diRsSUO3rlqhvvVl9Mt34qjiEZaR0kHEbRClnFeNBfFfrUwtw2VdkKX/nlzPttmo7dfv76Q1MNZK/3lH7dUvhhoZUBqBcrVJ6ykm8QikLYI4dkRRXUUUZKdbsqWOFq0PWekUR7hF64nwsLRIFPO5xgatUyfXr1bXD1etJa59NlcdlK/ArtFWZkYrLfjj8YYm/x5iPPnWipfTh3KhTR5gGFjmFM14rqx5as8LUxdaeNWCs4TgDraN7Fhat33dkY4JGvGIf7QcLrtyjSTWxwP4wmnkOBeKLA3PWoebqqoeL5Zb503t44nPeJQAnS/o/K5lsqXAu0BaLWxwsaYRbi0bXSpYteqMF8ECS6Q7pzSDkNB3US0Alolekwce7CFNBMk5Th0FwNbSsyLO3X8OGC4L148gwOskW7sts7oYxWpp/R3OH+upfKlQG9Y8VcOKH7Oh/OWkP9ljck6jGVInDWsQte45oA2ejGte95cqhjTEREHtrQwloRdZ7O4XegMWp1LvyN2ulvchn69g0P8AOqu7D7XW/TZ2xzdq7uHOHufUvq/mqMh+bt2lWLWgN2RtlhiS20cuvdjISvKSFzX2pReG9P6NeSvOsPzyu2cjezMBHkdvL9AHKoYvNdzBWf3f8OWonh4wKErP6gA+QyYM9QKZ2f05tZxn6MbAXrcw/lzF27+A47G/HnkSrPK4ShY3EWWEMLOhR1bURq6diyrZHvaMIcGW6HcyEnlPglNNzb1rrdlJrjuSDHNGN/yDbeeYkeJ8tN2u1yGP358/55UMOfX08/ZcOn44y2VXkflc0r/1xYskptYtrBcdPeufL74uKztKKlsWQVuSDRS1ZIykVHZPIZek0brItzhjULEcYJD3lgHUgSdY0ySGERdfry9u91c/sbQs5stZeo/l8D5/LfpuuyPBWgWOD6l9H8p0BnYFJuF5mFZb3e7XVHgVGzxbFuRSCnMhYzAH3Zk6byDgdaih9HQ9PSkMi0XgwWYHaV4jgsijuIHLjtSxCb8DN7ebV59BtUsNOG83m06N8bsvazjFQH686aYXwp07cq5xJk380nfnMgJ6CJfLm03FlVlF3aa0H9AGUg1Lqdeg7V6ExHTbG53srV8CRM7dy7R9TZzUAVC+RYnvfl2epA/vwJzk0ATa9xsN+OXJcn7M/09K27v8wL0VwK9MWPXr5urFHw8iDBm9iiqOqpsNyKyjiTuO4rt6dTreLqTO+ghfE7g5orxXGxdmWbANQoPydxjf5BSjtv7bwOYLwf5s5I3xq/qc38gQDfDuf8IjX/RmfuvKE7j8LliOZiAHj0+TnzGmX4UEZyk7cqtfeFTEeMm2el02oU0C3n8Gz3d2IAZ5ieUdMAYgR7CC+KOCww1qmdQzfR3FeEgoPEMXjZTBR/popOsN8qoTjW1BeFR6aI9r/mRKa0YulFt2ztE9PUjsYaK6aKuUrG0K19GAifK3NCujZKjx2tfRG67lBspK0oFLS5UYC9BD+FF4QffA6ZmdSp28eu3gO6Gvmarmzat+0gXzfqTjBrnoxSgh74RVvoAeRQl4X6/3xQBPIqB9NKuU7vGvSwRVaKoKLQFId3EtNGk0xTPsHC0cH4hoKf1ypzjIbzz/Z85n4wF2gT3c69Euez2KOAKsTqfdTi/qotmXVoNYZS+V/sFhnJLOnqgt5gL4B4K+t0/viehD5DDkOK6wuU32wZxLP9H3dXwNK4kQRgcKxmGQJIBAybOerOxiQeWD+8KlhP//29dV42d2OEj6D2WlyDdiQtPd7qi6a6q7ul2SqJaW2WfD5YF0SeQg+m9iW5FxUcjNGLxEmZQ3z2WOJZCKLTjp3A8ESmJyKGiLJ+euE+0YnecKrh+3H/PrluZgG5MMraN/o0FOg9CWPtspeA1BQ3pEWjHIJdkgUWXWuogNu8K1rhb7/b6zTR9OD0oaSKd4qBIJ7zAmpmqEOKUKXIzwnl+c/8M/nF7S1HI88fDoXOlX77x4365jHEV6PbapFcmoKf9/sYDrQUYPlrBa0J0Ugbse0viSHKfODQiWRfWFji5Z5Qte/3pgefS8n+z38sxPU2r1cQBpmWoVDKadbUinMyqQkhu8URNKP+jArgjztdV12q8xkV6dQK6ifPGAq1ExgHmC8mwURTxZq9EdJKksQa7Fv6cG6mUOe8a5s64kdLluN+fTtE9n45L/1LAdLALOuY7RVhJ6V2dnHkuPZu9aF2hMStf581h/jULCyoDepmfm0DvbDLQB6UoCzzDGtr4QsXYgK5zmw9dMcoF5BwT0EWucBPV4ilFXuB7iXD3fN/d270vrQAccs95aCK/nBCW3Ylki1SSsy+F8qvLfr8lCB8gu3v7TbfuzXlRH8fd8csJ6I00oFtPCwUbeqMOgWlwzbFAyZP4dblQOxsDe5tbmwq6CGqJcJUOVKyN1p0QbqoywxBN9I5h4kBPZbkfSSqh/I1k9y+Viqd2x3/+PJRrH8O+vI+wnIDeXAO6iTNCEAMFCZDm0260aWNjB+GpNiQdoSQOoXYaeBtXKNhN8rEE+VCboUJ6xqGLmEvkoQgFZ1p2RycV8ZicdF+SOo/z1dVZkDeOp3zArttv+s8bbUAv8kbATaRBhPkCYXNWhViBLjl5pP3ovxAN4XXO8nSWyHERL4h20YoW2A94rYUNdJRD/2YfOKfoXSU+OyNBT67exPnquuyOm+9Q3qF37WNB/2gC+j8B+rHeTtVxGDSA4O5EQ+NiXMvSogmFaCCQJXwlPeN7fFntJMJj+Tm6MBL8+CuImJxhQmcSyzP5A4FlV9XClUJ4fN7E+Qw497rdd53+xjIq7jppDYxuPtBlNVwoX1IPqbkVsq4xujCDGAoF5r/kayvCEAIxlwgXuYgMLp8bJQQEUU3SEQ3xX5UeHc3rAyppglL4c5A9C5sDpeN7lLoa1t2U8fhDLtILX3RxpHBzDehGRPslgjDpE+wwfk6dID2IrMPFG0HaFRLQkieUtVoSB/Sh5GcLWq1HWscdZo5hGA3xEhTjuSeXJ3VPBUv6YdkdZZnXKSJURII659hNuYL97HHutTPH23bd0hc9/GcT0P8F0H1OzkQxk24nTLxjV1SRbJwkDiOKRVi0cA4B11ZUOkeES0LHr0JyjGSZgb9Le9HhOxUI7gHUCq3oGXRhlv2PYC9k4a8Cs0hXZ4/dV4eP1vuie5/ki37FNOnOLjjHhTEjpoIwyYD0LHWCoZMSiNORCGdcuxdmB6jlcw3SQYUIySj/Xt2mxeHHcDKfX07SNGWCHiRM0BMkCskbjyUahEmSAOeSaePpfs3Q18t50aYv2v/3vuiXBLifM+jkECPmdBBcpPwqnOF5exREn5klfPPUIqoRzkzZQjogXKxhQxFfQqCD2Rw71niAYpLRSfp5t1IIYdX9eHggzrXs/iDQf8MX/RqgHwPOyQkfHoBN5HCS0qKUiodgtoXKnSaqqH66jmpdxDZlddTmVALbX8VBWzadX96cTLyXVI1xNF9dHTcEIWX3Aufxm+/om2OMC52ywHkqOPc3Hujv/nJCiAXoMJxdkTGiLeiEIo/TdDr4rVRCVwBnpGcRMZq/DLPgd1JPsZxxntwNK6vfJ+jmc/oFg/ZdqypvvN1+XTZnx03/eW8Rzzv9nS2I6D6nG6E4ALRWRYbjj1L4hGeY3DJ9VJXQwk3ywe3ropb/lMU8DqdTgxmnDnG+nFRtWDDoWbvnvYT57Gppb6wd+mpshqh1yrRtI2040DuHZcl47uCPP85TESxpVrhcGcnSYHRgGCh7klQYyqiQhfNAS1THfP4JFh2a0yBQXII5594TSdAEO30+b+2H8Pt7zq6Dh7OHRjy/7/TvrviijV0n/S0AemdPBRFwFtgGp2mSjVIf0NAoYHeiTrxaEWhTpgxhepo0T2uuMJWgH0We4IkixDZoMmhs5GCCTmfzq9XeFXC+ugoD23t/d934zXnR5QqO/s4WRHR/qoJOJOn5NKHRIRAnDGib81ykLuCIkmGwEvqcAf6c02DCZwNBGiN7BoJnApxBNIajrJ7nEAadom9Vlg/XPODN/XXopujeXjOe3xljJNBt//ngE33Rvw40VWFkvg25pQrXP4aFK1xpPT0mkooSsKqERbqohPzM4OfGOIWBU9ytwZkPBDJZnbf7MclRacKEE413g2vaG39W+Nv4zZn+3doXbW4s+ES77u8DzRNC4TDBskDBuWBSwMJ5wdBXQgNjg4wOldB6nK1iQdRpzGKpC1bCIL+8vLkRVsel0AL2EAl6Rpj5RTqTVDrlHNNIrXj+2MKChR7cNqBhBeHc9OA0tnmoYimDUtyc76fAQYJc8TpFE2znPNieAULSID+LVNESzpez0UCE92TOF7KSPXpPmM7NUm9yQHgnT2xbceqrFc9vOf2Na/VLn//gMwdz/36OLqsHQgKYyUVwDCBc4EBDVEuoOsX04SAB+eUroQcdvwBtihg2qTDocI418kgVyeDurkobR8tR0aeHsnTyh1MS54dqum68dmHBqi+6uO3d/wLH7fNydAW0xtSXEDTsU1KFZxySSBwrIfgykgb4nQbYhpVQoBaUY1gd9VmES6QNkd6zdMTppNlLq98PP3uc2wb0+J0xRjz8asXzwfdtArq/F9Rz/paPDDsmFGpH8kziZlgJKb2dFEPirJ4dqQc/NjrMo5DLRnFXDMMFR/PLWnovFqw1Fo0u8nPvQ/Oijc2Xu22/rr+zPUBPueeuw9U+QSemQvQONGuiSMMCTh3BLihakJ8Vw9vnDkk5wyisCYcowmR0N0r8xPlCeTc2ulaPYe+7qyL7DaAbOB+24vlTfdEvmCZ1gZ8/Nya4GHZQ2GBsSMYoQN1g09X0TtXEA4URqbtqzZrQOxwIaNCN+REEIefNf7/SuWqPb3zIF63fWx20H9J/33S7rvnTPS+eQ1xqgocnGVoADkO6z6h1nCsQ9Z37HIKerEX322LOQ7kYDEWA1lIIYUFnkyMuHcWk3ez+2Detal14fH7957jtb6ydruvVY7krCwu2wYBu/vQxCCNTLcgUmAtlnINFhC+IQPauLHWhZx0LrK2mSjfEOeRBQoyZ47E+2yqV/hZNWOCdxgMeXV3f5dc/lo+7x69O1zVoSDUu+sIX7W+FXdf8aV9Hke+q+nPrsbdKoflEe3O4Ub7jB57PUR7SKa26Agovg+hwCOHgWcJZNvLPY7NKqdQEOrm7u8Pm3PH+2smN5Rhj09+Ytv26bQL6kVfWpaBJUFsapYpt19xXOxPy+TdZM4w8V1VAP3AASmLi05rYzVJEMnYyIpZpQzcFYZqK+hZyYrv73XcM6EY813bdy3nRnW0Dum86NDWk/IVqSB0oKVlCFq1ZwfnPU251RfCE2uWZZjJBeVSVvYekUzKe8YYwxRpkJo5ZW3ffEudv3zp2vLekGWvHGF99R89+ynYBXQanxvKWHtNtxSLAn9mJDX/0JIqr5hV/IdpLQkG7kH8sVcYTOxwknM95l3AiYI9G6fP9s3wtxgtub9PE49zd+8jQV8Xruu333Z/4jv5rgZ5KISSCnj07awooztchKQAAGctJREFUQcIZ5ZoBbUvlm1e65nXsBVi8N4w7sEZzOnYofAxlvvZeCpVjPwRdepxrX/TtWaRx09/4e+/ovxTo/iOmOSTNCmroW9ESJdBWh0UhETtQZNDatw7xfSr/ynzfBYxD4tleMnFgZf8sTXwVnK0M556fn90Jzhem1+oBjtfbdcvFl4eHW2XXtR5/h7gpO5SSJwoQuhtgOu7ujx7KXNlY0Q/Fxzm8aeW53ZAmNPpXYRSYeXU5nZnjBAQ6zVZb3oLzL8FZ3e9+aOirXhO4/3KMcWvsuuZPy8B3sEWRhKOcVIL9FCfB+jv38s83UZQkD1MUIH6Wrl7ljgr5PrnBYTEw6BQvrrjLZ1UQnh8T57C328zC43X7RZuLXD97XvQrgd4NItyk1xQlQA4KEC3Ci8qrk0/xkgKdWf8SS3nVLbjHoclxTiWY3KASUnmfTNIkSfAe6Mkf7a7cDQF7+Oun4Px/6q61qW1kidpjSTFiwC8tclaSHxCYIFUMfmSNqcv//1u3T/foBQE7ITbYRe2SUMWHk66e7tOnT1M819R1v6w6kjKeRcZY04s2jhFo4yjdpwQhfTZ0/cxj+PEyQyNoAuO79LdmKuRd0bQoVH9aRTj7+3RXHMqzg2/RceBpxJhw/YP6wa/9uRtbnHdQ11V4pMKYuHN0dF350xMH9L5hHYyoCXi3LQizxyCl4o3qZr1Zc3sSyBycEgir8aCzU1RvxC7j/J3fwZtp3nnzSlAxJby/p4ZwRbEvOG8dqVTiudM5rRuMNo4QaBxNIGDDDCsohhJyjFLC+Go6XHL7h1Xkzc+l4oQh3DRvZGWhKBvReS8la9xK6uCFeivtZ5jRq9AX4Xw/cx6aL25LbOVFz8q8cXlYoP/i71rE2GqjpKvTIM2CuIcRFSVnwwwo8x3e42NgR1Z+cGPJZ+4H0Xk7TnYnHaHdpZdrTOMcZ4wJLc7UEz50mn8gYzy7ZD/Gq73LGPcX4Oc6pND0qJDr82M3pP8aHUspTa/ghjJKNtUiA8MTSVlZSmoFdbrybEMoz2B3jOCtRLMAzTjzduyy02zvvEdfyL5OK+vdjfPjBHoZ+3qo/YyeQ6bzg2xK6SMCmYQbNuoRz6HhBM0ajkDbnjDAVEBxQyj5mV5BnhLiHXxaUOed7x/T50ZwXqXl2vFbLJLQdUlJ15XxvGdyY29At1yPrQrSEKMpbYSey5b0h3hDdfT6UZhniOt82V9hlgPjLOWC4UBDyEB3JTMXBpi8f4zGe5navLHKms32tj36pLrenfcpf9Ff9IOAzhzswxq8hFlGPTiqDhMhdM3mEQMValso1N0IZgaCMUoPk4mgkRrvW5s3WCvDblR1Gw7+9C3Op28tWr30F63KGA/Di+4L6AX1Kl4Amg4quhDZI4ScjnvDDLJRH6sT7nqthI32wXIIf4cZIRpvm51RQXfFuf/nv6WWkTuVNePcb59ukzHW1rvbe1nv/hCgr4yGLENJTeFBFkPVnVY5fwQFmIcS4+dSoy5hWb/lTn0wSR5PVCRFS1GHxPEE/eI3NIX/8KgwE5xPWlXd16v+os2cF63IkQ7Gi+4J6CVMA0ERZUORh6b/42cQzXgmg0JF6UStl1YFLUQIj2sxLgfO3Kfgg8OxYxYX2GojTdP1+tvXf8x8MlnNo2RHAvqZjLFzUF50P0Cfei7TQ0HgsbjcD6KQKTodGV5c8f14M2WGg8ctMrySeB94PCG0BUdXlLlsCF1MVO55vQ3v4MSZRItaPCev7dE3n8kYS9vLg/Ci+wHauFSrBX2CcEM9YZZFRgjnLFxzS0jfb5A0MvxrGDu9sngPcWe6fAdxLk8cT64LmFE+30i94XiL5m/v0ddtLw/Di+4F6AdHB5R6h6GvNoHkaJZC+9EamVtH9Kf1kiq7kV0VskwSXkPqU4Y5wVHc480ddAEzxoOYEko/GAkBnWzL0XVetKBFD6eu2wfQLYpnn1Kyh8Ef9SYhsnTGO1d4D7VGkXfji2RXeLsAm0P+EOpcp4xnfghtBX2dt4L3HM62fo4XzT9d7z4wL7oPoA2We6irjlkaY5RsVzEvjYwSPy5RMPtFWefzBJzShudDZ7O8Kx7C7/YdvCac7zkz23n3veA8e2hWbWO26kVf2l4ejBfdA9ALR3nw69dTarJjI2uagbuBdlGD/XjUMgaw2o2Mymr4HCDWQ68g7Fj2ZcN5QQX018ep7bvzvLGa5AR0spPt5WllvTu/B9Q4XqC/YOMYNqOo50LDi7I8Y0ECjii+wSCJrkAbA2qUp+QsStIx41zNHMgd3f8qE2/oZCQ/xw/N39aLntUOtn0g0O/9XVeNlHrvAOMUUHRrENEUxKIW9cO1NRIUDZjiVhGRzOIvq+DgifdFV65c8Tu4KEWMfJd+ZvNz5/d40fZBZYx7Jv4bi9BQ4x3D/MEEm00KDV0IsCEN3fDKm4jQreIrkG4Qqn4COi3qurKsG2NSmMI3/hsPCb9GNm90duRFa/eALuv3gI4V6MYXFfWgsw00nkKWD2jWE+ip0djcRACLA6ltBS3qI+0UON8yNXrLx4HgwsEvIDSMAzidDBnnqMD5dV6U0T1Jnt1dOpCMca9AQ96PzUDwFyD6A+nDc9cNjl4xBEsjKz6HixJrzZ1Q3kGG+uJinBOj3Wnlcw8DTMoc8+FJp739enehFy11MkU8HzXQjcVQ9TIMYKnXDlQwDUXv7AfexhffJF+bVAtJV+iTWNPvuGm9rhuP7U6sVHRTWASNBvN5PJnNgyq/8RYv2n55d+n86pjpOv5po6VivHOZr0L2NdEbJTlYs7caymilTZQ3KjI7VHZ3IrPxzDlDTl6Nu2OryF2NRtB0UDS7ThxbIWPy1pn0pNyj/7Ve9HiBRuIAaRdFtkyO1xisZCELvXzZsJePrFtlU+vlAyVj9l3iWZK0PISCs4TzCuvNs/nMgQC6tV2LVD0H9EIverQskm1VwNlRxeYZZTIvUJslUkMai7RR8Qsowl1m/hXFtsh43fId7FpuQ+7kcb6YjgDyaDTos47RCVqtLUelk0rfXb9vdXbVKOXPxwp0izoV1Te+R/liYHwdbriqcG16CNS0ZwlRagenKrAFh5jKVOi6kuAAGbqajgTmwWxGOE9cU5unJDsQ0FXfyyPnRfMxIYMYYRZodwSV71lZObgMz7diA/6JL3MrJatttqyDJZW9ktf9+fj49AQhPyo7ShvA2THN9g6ir+TlHv2B9aL7A/ok5FaalTI6BJjTvmaXYt4L8vBDXrG3Qc1fGvZqFudcwWHDubtcb9ClfPuKeXd/Mp8hbyybVX/R5I0h4bO7S52/fnfpg4C+BMURaJHiRjyG7UVYMOYHUPNSMv4l0qm2IHtB6rHDY2ZzhnyEfR53b1DN9SN/s9n8+LGeSDwD553uLjX3f3fpo/QFoJ89zZk3NCCSKH+wwk6J2Jn+PpNiD60inNXgb044pwWLJBfFpLYDzpyfV4P+MOB4JpxPd/UXbVeFudU9+saRA/3gIuuGTOCrKKCQDuIQRV12bYs6Kq5T30o4lKdYLgqgBedbqexumX5G3y1PICXnUa8vz2DsPDRr/qLJ651hEdCduo/rMfOi/DnDAoWvByDtlJadVwWZF7WIws2JgFEWh7Bx4VOxgQ2VaUGKdvNmEH13XmoMBvPhZDJ3YEhqcd4logucK3v0n4qA/rPfdd4wHvYGPT7RK0bQ0OpOxTeJMzR3hewxCpcT9IKw7sGmprQptyX/LPHMFy7mlDcI5zkWnBdnO+7RVxfpn/uLXn4Qsn8jwC+vMI6lxMBhHN74dp9Q4pdt5c01/c+Tes9nr0Gbn5/uvhfzFNt5XzMvSkCP5oNBrz+Jqa5bzRx10tnVX/TkpEJwCAF9/tHC3L+SSRonjnD34OrCkOPW1nJotOmbMMRCJxIK+znK0WrH8cYWZy6hu6LKhe92HtADegIJZ6o4gnbn1Q6lvkh/UidG6wLoowb6/EsvlJGfScFFw3E7xTgLRRzVcIw4kofH9BF75rJvt+iRbDhfXNh7CIwzZ41Bbxgyzqs4aLZ2WYZNiktihSKpFs9HDfRVYxl7HL8q9CUTUyOurJgOvmuIaz6ZwAHt8QEmCmh1cZeHs7Qp8sHRX5ugJzGVdQR0vGydbj0HVCxiWQeO3LCgjOcjTx154vAlqv1UpoBYFGIaVFtKSWzNEdHi929u83HK7YXdthpLPMsrOEB6njHOD2fNHc8B5VLzl0auHwzl+4FutEJXQNSMr8oU00q2zdbsL8oVnWQNbZ9B872g+S9koCLxzOGM+7GzkJ5BwnmmFp3mjueAcsfcipLxkxDQ7wb6iiXnXMJpZdttoY7A5XFk8488XKlglzAp67LXcJasMeoN4wnH8yQ7aW5jkZIqkVSLZ9xduvoMwtx3A91YONoTRypPwFbwQfHYo8eGuZbKGQ40rn0H00rWsDhjfUJgXiE9TyzOD8IibTvB+4Lpz4Ucn4Tpfy/QjRZuhTHOQNqTHKEBtGddOlwICRDSSBqe5vz8dCclXRnPbMo4kmew1+sRzAy0WTxnkZItl8Sav3KGaBw70JhewcmHSwmPs7C2X3xmQr7jcNZsEcbp2X3K0wbLRceyCMu2VPwMzvsEMl7CyTJp1xQEyZuXxITgqMXzpyGg3wk0DslqwRdAy0UrnZ9NgYMSH8XipMHHCIGz7t6V0QxftTyekZu5eiacXYdy9G+QGy8sOCpS88bRA31+qVwLqeDqWaSBLBOhtklhjCWcHf+ifAQFZ9g/s38PVxvzCcez4wR2ubumIEi2WXB8Uqb/XUDbxOHZuo0ztBRxisu4Im2IKSkfgKPyuRLOF3Wc+VAqwzyZqIcS0XaydXZVEnbt6uTq0zD97wK6kbicfS3SiGTtSr0Mr8Y8pzBT59pzWVkxG+SNNsYZ948lnOcDpI2YcE4TmzZepI5XtlSa/2/vbHsaR5YojNc2DmNs4zDaRCLNBFvALkjRJJMPSHv5/3/rdlX1S3WI7YQkkDjtQQyiJSSeqSlXnT5d7Sr9ZmLBkSj9O7hJ5a/wM4rpXiUgLP+iLAG8MS3TkirpqB180JhJrXvCofEyPZclZI3bEsNZgn4P08GGQwJp1R6lB4d5YqXRpDphuU4tyjfhJWJErHgnrIrsS4UazxoDZ/UefDfhjFe2qakb8BosSauT4RxPpsNFEQy2AS2YkJQpBTpHC0d+ygK0EpPyHxFipagG4pihY/pSMsZ/B/hbpecfN/oIEBlFnyigYQBmKbMGVBsYzi+OE0m0qUjq3chGjJqJufX3OqD3BxpLu0uKZ7xGWl1lBd9B2rESRJX4rF6DmDRo6KU6nyk5w7W8Om3M3rl7btvRxGQ1T3qi9NO2yjNFLL0NVRDH1GfHOqNIzNcUztEL6qFqJ8WezgTO5bCU1QbFc3mleu4Wd92K0s/jOQ0rnFjwBVe2fVFE56Ea3k+NtWr86OM6Vlelx6bciN91OP+yaQNG9UjOwyH13DGmjcGKxCw2mAFtRxakoWvpP33QdEmh7kQoeVjUCBmFOkobMj2DvE+c8SrNB/y4B8zD+XAkOUN2WWhDQUcryEfmHucIjv2BVvd+IGsdxJcGuuoEqRmMXnXpfKNMz8T54VZCLnEDFnrBvxbBYN3xiNaIDgLn6MTRjODYE2iZon8q0Ip1dB2bFlALG/rq5AfNmQa4grMcjM/3pYzl4Xg2ms4hO4+uTI/S0aGcwgiOfUV0nV/Tvcgxe/dpvJiaVTBH0fWjzs5o4n/UB1Luh/DI2nkue8HJ5PVq8OF4hOg6POGM4Pji0cRfBLrGui3SbHUka5Eu1kVddId3w2rXBp2VWMK9vDKWh7M7yRmLZ5M2VmJWbDGCIzyiERz7Ap1nqqvWEWyC2aLGeH7513HHkIdfoi7HszG6kLAXfHHzg3sWdpvRxH0RoC3oQt+oruOXPtEWN+ZmAH35aMLZWBfRtwHhPJ6OoOWOJ8MrpiA5xyPa/AXGAf1No4m/ErSOauIaqw/1DUgbv3jWAC1UWUQhnKcTlDbi6VsYttQVYtDqgHZGE2dZPwRonqMr4qxLj4hiO1YqnUobf9N8XB3Ot+iNwXAeg5sAW8GXoAjajrA1DCxY1UXtCI7j1EU/7yY1OCMT1Pi1+fKvx39p/uIvctSRjwC2qmYyaUyophtTi7LhZtUaXXSAuig74l1V1RGS3SHAfxrQFnVsvxW93qhwRufi021Jyv7tXHIeYdaIfoz1NsrWoNnIgizjjtG8OkoBegfQb5YyqRkRf+IHhhmV/RI3UUoZzWCpm8OBQaiBN2sFV1adG+l1PNfH7IDeAXQ4K6PGR74FLebHp3JYzvEPFHQjpYeudiibHB1kkyGObQTHwUD/s/zf7ybOrzcc8y3Ic7IJLIeQnEeAOdbJedtWUN8kZkdA8xEcx6uL7gC6ni7/m67FPHqCbVeVNJ7gxlLQNOaIeQJ7r4h50CRftFhkBL9JLGAjOI7eAb1LtXc1Wa4N6eHjjYYso3lMmIfYn0BFJxuU6Xs6EA0TREWjMVdwvyg35ib18QvQO5XVr5Pl8gPmycOjThlPT/eoZwzHErSDuQgaT8p3VR2rN4mFRe2MOukj6HQ+W84/hPMvMxweMI+B9BjffqDSyT4QMDeiFB2jiYPVm8TCE5HrdjPQPC5ncydNjx7sDP57aP+GQHo8vpuMAHMk2+0BOQmatgEbqw5h2+61N4kduQC9E+h8MP/tkB4+med+TIgl7DtoTyCao7u3oPNuCbHJBVcfJ0Mcuy66o/fuFXoPTXp0b3e2x1NAPKZmW1KGgu7uPSyCjbYBG1QkLtexk8cnIdft6CZNnmOZe4n09B6HtCLl6RQp302x10Yp9HVhMHeM9hKtx7u1jXHlJrFeR7T8RoW7I1PZfk9KEPTv8UgxZQzZm6BXI47iycuiCFtdXquHMtfOFyW+Rzox98BHK4JRHM3gbkyQMsqhCmVIGCM4UTWS/wKT57cr+d+e52CxiT7HVzVmjOMgXfWLnl7q2P5nZc/PsyVeqzue6nffBFSj+RwCPRq9XBUt9dxm16RbFQmQZ469rn+6aOPqYj7//Xs+mchUQZAld/TsR/HzIi3STSXmDi+SOW6FdlErb/ROF21eDSmCYUiMLOSWkJZhwMbrm7CZuaE0Fu3n6JUXybmP3hlY0EddtGV1MZktZUyPRrKKoyLj7s8izYq0WydqjWh2RpN1KYkji/b07bd2Nb8IXmHkEUgd8pGQhQQSdI+YajF9CeeMpuBjkmqH8xmBxt83Gyze/vz587a4GsgCbOBE5ecKZ1PUMXHjTFSkRtAyX8pGUT5VJiHL/+ndJhjRpfSzXpBzLorzBl3XSRimeNud0KDFlhvbH+Q6fnu37VLOQK5rBg2kFWghbEQLmzvacrRouzzFeJE05zNQkdav5h8jepPLJDriPWDNYPBB3Dj+c/SHTB2piehNtgHbD8MGTNsoVNpgpq++y3XNEZ0n9SroztTRfLybh7O+vduISOehIrWljjRYBd1mvRXNq4KHM9xSE3LO1Um46w4DGs6bqdQhBkJs0futueBKIGgTzhJtaLW6b70O6GgiOmXVnYNSbF7eoVJnMaMQal6D/QH9iZ9VVfD7F0Uo/y5CDOvg83JdwHpuUzwnp99z7yHANeiigk87gg7sPvdKz33iFpn9gJaIM4roNtCiq0MJAnef2/SCJp7zi/ycQVf7Sh1OK8iqDlfbOPfUoSI6bAEtOjsUs/3Ke5TCdcicK2hDOqkM6KCj5/6YOtwWxZE2etFz7yl1VDLsikqBThtAtyj9wu0EVSvIDAX5qaPcc0RnXaDX5mgonE3WoFbQhLMSNy5yD9qUHUmiyg4i3aL08/4FGpQr06GoIA6dFiXrQc+9l0YRroNA0E7u2CyilWXD7QQrHs5V1odWcD+gKXfUCaukg1bXPjsrSAPM+auvqhL6iiYE9qPn3hNoJKxBK9Itnn6hZqiZ41UiZOGcJLWNZuCceNCWs8watUtatCv9QujhXvAdB3Ndm+xcod/Lg+a5A0AnGnQKrpfmAfFkPrKcB+rNhx4k+eFy9qBtSAPp2g1p4ZJ2p5kEnHKAcy5VOKNSp/RQbV/sIehP/iyUpBGx7sCpNA7WlBmUM6g9YYXzaofCa+fzzRUfVgEMqqRq41CSTol04J6UX6nnNFuN2XQovhVsWAXQljTQpdpDPwNdyamU4YZwpTAXvkPZHLQmnTLScNxVQ8ZybhCy5k9mYtYIqsvwfM/dsAqgs4yRxuLDshbCKTMczElikga9BH2Z0QG6YKTpC2CNf4CwsOe5OWYsnAtW0XnQbat5xUmnAX6hWKfgCHXOGWvrQMILZ9+hbAi6YtkjVRkbYYdpyDe54RyKxkynftwGxYNuXVWbh/qVSFvjBraBTBU0Ea1r5d63HYoHvQFojEtNWrsQ1MMgQ2VXMcpYsbBG0IPujGjNGlAnHHxRaMbUpoSUmo2PwMHsQXetkowHBQSYMbQTgeROBllZNbQrplag+4XywKD1CxHl6RoEJ5KcYNPEUlagc+uKqXqH8qCgHdQ1Jgej8AFiBRlKO0O5ry6vw4PWqDE5JOozbJoUBrMaPtxr89H+3aTrXLxUSDhlh64xarNaVbag6z3ZwwS4AY2dNX24L7+cV80e9I5iXpZVmXly57k4t3ru8B25fmpGOcei+6xQHrx/MbgZZHgDnls9d8gixL7sJNXqou/+ue+s9ir2UD4xOyce9P5/dHUeWv73g/arHrQH7UH7VQ/ag/arHvS3rXo6PoQ9aL/qQXvQHrTH4UF70H7Vg/agPWiPw4P2oP2qB+1BnzloT8cHuAftVz1oD9qvehwedJ9W/w+kqLl/rxN+EQAAAABJRU5ErkJggg==;" vertex="1" parent="iIjDCpFlkyaxMlVBKjSk-85">
          <mxGeometry y="61.53846153846153" width="80.48410256410257" height="82.05128205128206" as="geometry" />
        </mxCell>
        <mxCell id="iIjDCpFlkyaxMlVBKjSk-4" value="Input Image" style="text;html=1;align=center;verticalAlign=middle;resizable=0;points=[];autosize=1;strokeColor=none;fillColor=none;" vertex="1" parent="iIjDCpFlkyaxMlVBKjSk-85">
          <mxGeometry y="143.5897435897436" width="90" height="30" as="geometry" />
        </mxCell>
        <mxCell id="iIjDCpFlkyaxMlVBKjSk-10" style="edgeStyle=orthogonalEdgeStyle;rounded=0;orthogonalLoop=1;jettySize=auto;html=1;entryX=0;entryY=0.5;entryDx=0;entryDy=0;" edge="1" parent="iIjDCpFlkyaxMlVBKjSk-85" source="iIjDCpFlkyaxMlVBKjSk-6" target="iIjDCpFlkyaxMlVBKjSk-9">
          <mxGeometry relative="1" as="geometry">
            <Array as="points">
              <mxPoint x="228.42285714285714" y="102.56410256410257" />
              <mxPoint x="228.42285714285714" y="24.615384615384613" />
            </Array>
          </mxGeometry>
        </mxCell>
        <mxCell id="iIjDCpFlkyaxMlVBKjSk-22" style="edgeStyle=orthogonalEdgeStyle;rounded=0;orthogonalLoop=1;jettySize=auto;html=1;entryX=0;entryY=0.5;entryDx=0;entryDy=0;" edge="1" parent="iIjDCpFlkyaxMlVBKjSk-85" source="iIjDCpFlkyaxMlVBKjSk-6" target="iIjDCpFlkyaxMlVBKjSk-21">
          <mxGeometry relative="1" as="geometry" />
        </mxCell>
        <mxCell id="iIjDCpFlkyaxMlVBKjSk-6" value="" style="shape=image;verticalLabelPosition=bottom;labelBackgroundColor=default;verticalAlign=top;aspect=fixed;imageAspect=0;image=data:image/gif,R0lGODlhsgHTAffGAAEBAQAIAAsLCwETAQUfBQAAEAEBHhMTExsbGwEiAQEsAQM2AwEBNAEBPyQkJCwsLDQ0NDs7OwRLBAlOCQBdABJWFRZeFgN/Awp/ChNuExBxEBJ/Ehl/GShEKCVXJTNQMyRnJCR8JDJlMjJpOD17PQcHSD09UQEBbzs7b0NDQ0xMTFRUVFpaWlZpVlxyXGRkZGxsbHZ2dnh4ePcHB/8AAPQLC+wUFOUdHegZGd8lJdosLM8+PtYzM9I6OuEiIr98fM1DQ8pLS8ZTU8hRUcRcXMJjY8Bra8BzcwCAAAyADBSBFBuBGyOCIyyDLDSFNDyGPEOIQ0yLTFSNVFiOWF2QXWSIZGSTZGuWa26YbnyAfHOZc3qVenude3+gfwAAkjo6rl5ekkNDtVpavHFxt3x8vwAFzAUF2T4+zyYm3yws2jQ01Ts70QkJ4AYG7woK7R0d5RQU7BkZ6AcH9wsL9AAA/yIi4UNDzUtLylRUxlxcxFFRyGNjwmtrwXNzwIODg4uLi4WVhY+Vj5KSkpubm7+EhISihIuli4+oj5SrlJqump6xno6OqYSEv4qKvJmZtJ6eu6Ojo6ysrKS0pKi3qKy6rKiouLS0tLK9sr29vcCLi8GVlcKbm8Sjo8aqqsivr8mzs827u7bBtrzFvIuLwJOTwZycwqSkxKqqxq+vyLS0yry8zsTExMPKw8rLytHDw9XLy9jPz8zRzMTE0svL1s/P2NLT0tvU1NXZ1dPT29zd3eLd3d7g3t3d4uTk5Ojm5ufo5+bm6Ovs7PDv7+/w7+/v8PT09P///wAAAAAAAAAAAAAAAAAAAAAAAAAAAAAAAAAAAAAAAAAAAAAAAAAAAAAAAAAAAAAAAAAAAAAAAAAAAAAAAAAAAAAAAAAAAAAAAAAAAAAAAAAAAAAAAAAAAAAAAAAAAAAAAAAAAAAAAAAAAAAAAAAAAAAAAAAAAAAAAAAAAAAAAAAAAAAAAAAAAAAAAAAAAAAAAAAAAAAAAAAAAAAAAAAAAAAAAAAAAAAAAAAAACH5BAAAAAAALAAAAACyAdMBAAj+AI0JHEiwoMGDCBMqXMiwocOHECNKnEixosWLGDNq3Mixo8ePIEOKHEmypMmTKFOqXMmypcuXMGPKnEmzps2bOHPq3Mmzp8+fQIMKHUq0qNGjSJMqXcq0qdOnUKNKnUq1qtWrWLNq3cq1q9evYMOKHUu2rNmzaNOqXcu2rdu3cOPKnUu3rt27ePPq3cu3r9+/gAMLHky4sOHDiBMrXsy4sePHkCNLnky5suXLmDNr3sy5s+fPoEOLHk26tOnTWC3VQs3aay8ALFrL1voCAKbZuKvmAhAht2+ptW//Hs50d2/iyJPWXpW8eVHjzqMLrQ1KuvWeu1Nc364zOPfvNbP+gx8vk4Vt8uhbik/PPqV55u3jk1wvvz7I9/bzd6Svv/9F/P4FSBF/AhbokHmtGKhgQ7UAoN2CECYEYIQUDkRghRFOiGGEDT64IYUIfkhhgyqICCIACZq4YIcqUlQLCzFwF2KLE/US43Uk0kjRLzdatwKKOtbYY3Q5BhlRLyw8AAlBvfzhpB9OWoLbjykaqVEtMvhWpJVXDikblVxuVIuXrG0ZJkZYwlUMKKAUoxOYZ2aUplvB5EADDTq4eZOZcVo05ls/3HknITj9GEufcpKZVhGC0mDEngCsgKicWbrVSaPV2bSCAZXoOWlFc7pFSA45aHJTLF7QQUcavXwKqqL+pKGgqqp5uOoirKLFcsKsdKhh60ShnqYCA7z28atEwZYWS6SlwEEHHp4e61CypKkAwGrGRCvttJWatqyk27rYbWnWYhsusuOG5EoPPhyhLV7fnisuSb7YIOijDL2bVrnyApvuR5cK6sNCvgBBAw6dsNVKpP36S5Irjfaw0BCCztCqWvw2HBG1HxFxZw2uLGSvoJ6otTC4GkPE8UeucHKxQjs0mgvG16a88b8lEXIDDj8YBIsPNMyQickM26wyziOB0iihBRUDSzBrZWw0tyBxEoQQsBh0RKM0bCLXwrFN/dDKF3EiaA26FKQJ1zNADZfUYjNEtkUGC8r0QMX0wHX+1hjp+9QqsMU9NtICjaoDJxFRLKjXBukg6A1+P7RJDTQA8QtVcGuMJAvwrcLCC1USRPYmjYb8kCuU46mvLkDMoMMrF9nSKBFTAR620X+sUkzYMuQSzO2iEx5Eo0dElAshm0TeixFElGyR2QJPlULNU8fQKri5xCBDiQaRbUSjjEMkjELB4LD4Q6Cw+4OesDQ6hFS2x/1HK7szCfxAZPdyw509RG5MJjjgmUBAATQfmM4gpGsUDpynEF2kjgbFE0gmZoCntEVlejObSjFG0YdUkOYXK+AcJiBRixesIIMCKcYqVhEJGKwQhQQphifapBBPLM1OgsJBEYTAQIFAr1H+NfCFQYpBiB4QoRcJvBMPCBIMW9QucBpUw6xIMZxgRCISg4DBFc0lke+djWuNShjegMa1HxyhB0W4nDEYdacc2FBQQcgKBqmiCl7VITl/ukgmwMjHgxHhgMEgxAODJqglGmOQrhjex+5GlfjRkVdvwCOuHpK3igERjDM4oDF40MfKHcF8grIFIbjGSKnMkSrFSMOsGiFJjezvThSsASF+QcZGFYEgHuskDWpJOzYKSgcKKcYPeDAEvhHFkVUJBhnycIrmzO0hvuCaJ4QwAxtkIhN6uxdBAnYnH1CQa5vIhPN+eCcgKGRrd8KB24ZySsHdLCPFGBkNbIDOO72iFyP+q4ETCXIECt5gCD8QZKOMKZB+wrKHBnnlnRD6E8C9wJ0Ou0gugGCDWHYim3caWi8ycQQL4o2TSxvlneJYEIhpMyGOE5QmgdJOiA4OI7XMwfh8SQMeuG6lAkli9EDxA03A4mUSjFgNv/m+oTjUpei6iC64BjVf1FJQNuiFJjLRC2FATaSNAqYxfJHSWw5EaYLqwQ8IWpBcaCJT7AQADJHKIMIRRBee8GgMv0mDGgzkqTmEpV7BiLg1NqqH6PxmJv8GgIey9WgM2QQFZxA+gmhisX0tBl11ickdBCFhGK1cMTRxhOoIA6s0IGlTIqDWwyI2mA+sweriShBFNmqylKX+QScCpcDz7fFs+1wKJgpr2tMmpBdcA6pCfBGEGkwWtroMQjFcy7WB9WKQoj0dEHhQSpm0tLcLeaYxUooniHQCtpoYQhCeitxddgK4fMRB4RqVgyM9sLovOSp2qbYQXQTBBkCQK0MGSQPaZYuuNfhuHzORy7oKqmfGoO2d8PWQtRWyJqRd63wTol2KkLNrA1nqQMu7S2Nw4givnAGCHXynIfjvIG8cKU12a9gJy82tFlFwXaPFXR5klmvtNYZOc5C2mNltIq2rK+xmEmEXt/UjxeAuDXoghEzoyb44EAJzwWgqInINbQWmQV8l4olNCPclLDbykSlSjGuS1RgmBeP+EAhBhBzgoHnI1QEQihBXvd0Atj+wxcj6txTSflnM3YNxQoqBwxmg1YexvdOdwSiEgdStrgqtXC9+wQlPnPgmr8gEJ7QVZkBnd5IKIWd0QYHD2OKXazxA4WQf2ygbSNgnP4yuMSIgAP16unugTgiJa3qETBAjy7HtAWj5LJBg1HIGvngFSO/kVaGUmgYHtARvb62QCh8En5acJ2X5CwSnwrIHnIAFJyZXMVMZo579JQoo74RWP1O72oJOiC2KMIRl85G5OTiCvTUhjCmzbZ9FmOyhgVJPH+hJ2i1+90GsrZBHc60Hr3iF+/wqKNrdtpOw0ykPGPqTMs/5ZUVWOEL+GG6QlvXiwjTIt5587CgdN8pU6AajDdwkBFs2RdowEDmFc40QNtYAFJ6QpyFTOEioBby/bvI3Ie8EYq6Zu88A+LPOjZHHiLTvl6DIRBByQARQHEETUCsG1yxYDE85fJ4Oh62JmYLzqY883gb5xCWDxglXfPMGUHv00AvCzbr6Is1g5PhR3G1kX7CAcwLJxecisXC4F0QY627UP9mbi2IYgQdpTIgndGCDHHitGMtedw00YWujtF3M86ufMQZhiWIkHH+OLwgsgJCDmp9tylptSD2LR8QihHt/gtUBfIcCgagD2nrGAFcvIpACKQX6IsXgZd/vJMR80XUG7/JioxD+bHoA5BzQuVO9H1ZzP4GQHCG5GIIO3GUMAX8sWq7oqbbAKijh/gK56j1K8aXe216EcBUj5DkvMAgEwQtPEgNRwhGcAFkE8UPEZgxTZk6yx0c3cBSn53ZvBxK+AAq+UHYD8WyZQk44YATrhDeRdieNRXwCwH8YeH4REXAzgC9P5TygJYEHAQs9MEgpGBQXiIGNxxGwAAt6smuIg1UGJxCANzQKoX3pRhTFAAEr6IMUFnvBpEg8MD5Z9iivkDo2qGM3UAPrsxC7xn1C0YNSWBAuiBA61TMXh2EON3AOUQx184BCAYUs6INpeBDo1mjLdSdCUAy9oGQ7+BBBuBK24An+d9gQZniGwaMRKUYDT6cLrWJ7ZyNcMtQJ43MTIlUDgvcQdsiIGagRmWADYGgQu2YDPbBSoKdoiagS6NVNFrGIoGh+VEgRNOVfamNzNSFxFXNpCfGJs/h8JKFTT0cQMiZrMVEMCoWMDxEJAMBzeAiNGAGDuFgQr0BXW0YTsLADUVaCEfEAURiMwlgSHqh5PKADSvgU0iaNLViLdgGOrSiFeWgSnQAEQNCJQOGM7NiOOUF/0IYU4KhG4jiONkFTDEYU+jiQI7ePEuEKNCQRMkaGQxGQXuGL21F1HtGHNHADpbcQvQBKNyCQQ5GQXJEKdUAHdwAM8jGPDEFO1fgQwbD+CclzFBS5Fb8wB7NyByvpjg4BWjvQFSS5FanAK3OwkyEBC3SVjllRDDW5FbzAK2tglCHBCW4WhlsRlFwxCnJAB3EwCyvJkHHRlF0BDLJgkdaBkX7hjDyJE8EwBnhQCibCkmwhlkCBC3mgB82UQqqkKmTAEMqUB3CZH3KpFmpJFL2Ak6qSl7LAK3CAC8G0l3TQl/YxmGkBjt74E43AKzppDHXEK6sidYs5K3AgmGu5FpAAAKX5EqTAK3ogEKPgmbSCELPAK3EgHb9wePCBCSb0fWiYmpUpAJfZcSdJB3IgCwLRB7DZKwhRDGcwK6MgHakHPLnzg35xmr7ZEqQQB3D+cAZ9gEKh6Zl8YAyykAd4oAoxRAodZB3IhzLJF4p9YZlEcQq88pwEcQproAZ5gJN2kAd3sJWqYp4YUQp8YAqkEX630wp+4J57YZ1EQQzOMit2oBC4gJi8UivBxAh4wAh+swezsgej4X8itCQwIFy9MAiC8AcwIAiCIBx5AZ9DMZS84isJQQbJiQajoC/j+QazggcHEQyeaZahUQzBQAyrEAPCQAxAqhYMShSzSZQKwQjJqSoRWhC04J+8cpm/4JnBORtoiRcOcABb6hPNOSty8C6/MAuASKGwyQsFgZywqS96MCsWShxdahdLWhO9EKZNQ6G1WRClsJVwIAvfSZz+vLJWNOqZHnoQG4QHN4pH1zkWX6qnK1EMdqAqidoIanAHXlkMpMAHHmQMPsorLwOIVooGxpAKaQAHe8AHOWkQvOAGqjIHeUCg6EGZYnGnM3GoiQmlsdoLY0oHrFQMVkoHxCAQYzCsqqItprAHpKAvvcAIjMCmMcQLSSobdToXTHkA1UoSd8ArZCBFs6KrdDCaxsCrdECfqJCcUYk3FIEKzvIGxokjYHkWuJqrvJIKlbpKjJkta6AqjXmcRDmueXA5wdCtc2AHzUpJFHpHOPKoYPGlmVgTxYAHqjIG4omYZ1AM4BqZxrCacioQ8jkrGzsHwcCqMWqRtPCjDZsX9Sr+sZ7CC6SQl8VABm9pDMCgputqDBxKB3agpnkAmbMCoAuRC0CbBhfpsF1RDJFqEzOLBmsgtAURDHnwBnbgmOYaq7QwEL8gC4wwrGkwnPfaEBtLB3WQtSt7F6eZoDbxmrEqrTHUraryBsWws7zCowLRCw/KK3ygpnQwB5dWDJ7plUd7F0oLpjcxtlREEF3rmWALSWegqWwbo8GQt8QZrwyBBrNCstxhq12RtjgBt4lJEJ0ZpVHqBm6qKniQQR7rnA4hC84yB6ZQDKXACI4pHZzLFUt7E7jwoHcQLVcbt3p7Bmmgo7PCCBQar7mwB2Prt3GIC2UHrnIAtY5qF4MAAGr+axPUGgynIL2cGaOzkAe8Irj5qiqogAt7kAfx+guUOyu0+hAhqypnYLtIu5Rfuq0jMQsnOQeokBBjEKNWKpmciZg5SxClEKVyoJIPYQoxKr91Ub3XSxOQqbkIAbqIKp54cAelELPRUgyzgAvvC5ub6RDqy7pEMr9XUbj2KxKAyyuWaxD9mpx8UKWzkgpz+wZrIAu8MJxngLmx6pnxKBCMAAdyUAef6hy3ixUOjBMjW6wIEblzgJhzgAv9K6cm27cUTLzJWbsNUcBkarbOZMJVgcI4gQuYCwf7+6RpoAbEawczE7l0wAeNu768AplqMAwW+cKzYiwikQpnsAaB6Rj+R2wVSawTPzy+dMCmvxAHsZoLv0oHjUyUuNAHa7AHFCsH4ckQhnyuItGkoQvIYKxB9bsUlLu/qRS3ZImYcDAL62vDQru6dPDHy+nKdSCpFzHFqPsYgUwVg6wUoCsHreLGfVAMeZsGxYDFdMAIBUHBiVoMfYAGduDFGqsqcYAHfVAKtGwRbnzJjZHLUiHGS9EL/QoHeWnLz5KydmTMdNC+vKCmgUm3cgvEduSvWpyRPAwHbssY3BwVu4wUvDAKsVuCg1oKj1yjA3G6ZKsnlPupdOuZdgsSxXAK1gwZ+fwU3owUsoCYaqCsaWCjvxul5GoMBp2oxgC0gqvA6mrEnwz+FdX7B0thyHmZQhiqoRRLurxiB24yoaoiB4KrCniso9v5xHMQB2NAofQ5vW5RDAigrUuBx69MEKB7B25M03SQl7jAB3sguJxMB0wdtKe6BmiAzKVxm4iXLTDwAs7Xm2+x0kyRmb06EKE6K8CwB1uJrOPKK4ygCvfcC/0ZsLAJwKhhoAIxCCsAA1wEe0ed1CmME6RwBnoguCnkmUg6Bqkwuii5QWSKmKwkEJlMui+NGuspEDIACaqH1m2h1lNBDKowC1UcnsTAB3eQCmIQq3A5s28wvGQqrXTN13PKGtEZ2FLCnobNFkit1EiBCz3LxgWRw6pyB6cwBnlJC6oEB2D+kAdncMYEoaYACrR0wMP/2cG4AUIhGgwhdNbZskKQ4EKr8GpjYdpIwd0fLRDgOysvXcyzwgZh4Agg+wZygAcFK5p6ctE1jZghvB1WhEVaFAmHghZIjQCJPRO94JkWOxCNXNS44JlfsAjGkAtWugd6PQdpEK+4gAviigcwa92T+q2pi8spvRSCAAAsnRTCCpWKG754Q6Fu4NqpYNKqwrB4A7dqQKHcuxLu3OB3MdEwjgAMvhQG3dDZwgdwgAad3bGx+gjDsAdrQMFosAcv7cp8YNUt7BKUG+SHYeRIwd5KMab/2hDFwAeMADWqTLr0adC7HRONO8+KQeZA4Y0LTuT+NpEKp3DNBzHQdgTPq6SojHAHGpoSp+Cfc37nKw4UvhAzozcQLf7iWHEKZ3AGUT4QcjzoxkDBj3AQM42SKoELpFDE2/zoP1FgM+BEe54VlB3koy4HaIAHkLmuhpy4TOTDm6vqPvFsXlPpVyHijbDQIk0Qv9CfROyavAKXXNy3XxbjswLouYHnPUGJNCCESM7nPaEK/km5ANwLGnwQ8a0ql2wKd5AHdl7QHfod1s4TusBJQmMMwm4UxUALrUjBD/oGCLy4Wv0ubgzLC3EKfbDpDDwWujA+r14UvcDD2pwQhtwIpVAKevLBUz0QvXAKaDrTjY4QpiDEd0DtWjKvU9H+4oJwFOVOB2I+EDoOB8JFwXSQuKqAmHzwC6dQu6mABnOwB/qSCxUKHu/ecdt+FGOb2QpxCniwB+ue8nIgrUCLk3JACrxgpWkwBvdsDDpOtkDv60Fh8khh0I49EbMAxULb6VEPm3Agklk94Gc7Fgtv73ggB3Ag8BPBC4xACkwsEAvNK1k/RQVxqGig3ihdFn8AACcvEZw6Bl+eEcDQB3eQsBDB7cu5B1QLmXK7901dEMCApuMR9Dzx9gcxC43w5dHcyRpRDNwd4djbs2oguLhgrnEg8gcfFsUAAA4SOWxNB3osEJRttBsxqO/dE7LQB2QgkvFxfpsABMXUFJGAALb+DwAO8Ad5X+O8IpAwqiqmuhFZHUmeRnJJhDZKUQvTcwCC0Asy4PwCQNgx5JluSwxYXAdJygt4oAbBbBCgq+tb0QulgOplEnuZpZQAYUzgQIIFDR5EmFDhQoHFYgAA8OLXwGKQIEBMYWngHTod1RTc07GjI4W97MhBI8tYMTQi9xgsZoqMSoY1bd7EqXDYHjhqaBqcNaejnWI5jR5FmlTpUqYHa8nAOYTGVBqcml5FOggBAAitEK5aAdHBoGLE+qjZA6wgHpF0+ii0IxJOMVlt52BVCKxPnlMDgRXNCZhpHrkTDXIU2RfvYsaNHSN9ivNVjak6BD9+HCsCgAODGPb+inEAgIAYuRCSaqtKYVs6snC1fWO0WKpTwWwWeyOSFK06dOCkunkKDp07hpXGaYvqoJq2pDA/hx59cWScujJtuiz96q8XEGHYvj3oAUQVmA6SefOm1MKWHeX0Mka4o+KbxdJ0hMOr5qm2ae53nIOYmniRQ6Q8mGJOJFwOGkWkOeDTzhhgTkpDtQgvxNAY6jLEsJhBREuhFqQwUQGiB8g6Spbh6HBOoFRIWfCg7AhCzaX92kpQpFlqMqWtOpiSRSg6+EiIkTTs+Ek7xHwDj0MnH6slhicjXOUiBCBhKhcYBOBMBghxoutLhIphZI3h1IixIDLauqMm+0Qy5T865pj+8aBZ2Gzql1TSnNIgITuysE9Bm4pyUMx+YQEiGepEqhhBHICIhVWaEnCgkPqzs8COTLltlD5Um6W3OZSzaU066jDNUMfkpEM/VV81qlBYsSrmDy5VSJUxQDxIgCtIGGVIODrWcPVPkZokKJU10mhEqV6ARegXWgArBpVAZ1VKxY5GwbZbhjZEyJMiCIEWW0sgdUCjo3qJYgMnYkGICyTmFYFLBPwwziZg/rRDoBVFimMgXNQylJfc6CDK26TCVHjQXliQVCBLUnhBRIPANUgTqngoV9VcwhLAj44TgmJeJDiYsRiT5+3lj60igtcmVewSiJG2fjOml/+IJIgXWUb+Zky+TRsmumiE/milGBYkVkEip6BKKAeqaAClYUmYuEACAFYQU7aVkWDFoF++NiySzQCIIJKaetGUjo8EUoUMUvoYRb9LAR3IZt92vDAukRgxOvDAY4Bv6YFkLQjjgnyYumpvW0HiAsmraIqJlbsWqOR5oSgolkQBQOAPZA8ipcA6+G4owTlmyZGOZo3JBUcMG3QPdcFv7/aPVZQmCJgXnlYoE6os87YWDyK/AIknmgolicgNQSgYLJ7AYnSBevFDNAFgsHhMXLIrpS09+miL71RuvgmXWcp9liEy6lCDVNznn7WXFSTFBJJIXlih+5z/+IMfYABAdRmkE0X4AdD+MkSMhyhgZVZgCisOcYlQ7GIpFbkIADIyEFTsgRHDSEiNOnKGYrBlDqQwBRrqMIY/4cEm8kED5gQSjDN0hAz0w2EObaI4wUFiKxFYRRTmxQQZ4qQQJuNCTXYxBSdgAVir+JwDBNEIkaSBUbz4U4uKUheR8AENcihOTc5nIITwITXJygMfXDUQYuBBDnHglA7lqDAeFi0WF+nMQGIhCgWOaWUXAKFCitGEeV1ACgvphQxEY4a2AAchs9DDGVo0EFN1pE04EaFv6tQ6bgmEP/gRkxkVNEdSzqqOCuOOdyqFl2B8rYiH+5qbBsFIkTgSJ+HrYk5owRqeFYR8IvmJ3zr+MkljtKcj6yllMgd1Smx5CET+W4zmlPeZlW2gFYjwykJEWIYKbKAJoahPDU9FMJzcjQ5oOEgw4iIHwG2kOQRhCzCVOc8pMRNWVQKd2pwlBSZIQYbDwIITrmC9g2ChkEKcF/QWkoo9jGEEJrtA2G6iilT0cSBcHEpCgrFKuGnqDcjiRW/oMAZ6lpRD9jTUwxRl0YM4wWROuIoosPk1oBHSZAtYwaQUQgw+1MEOtsuJfOAAVIbQgm6qIIUtVzKLNZrUqdJBaZ9qdatcOcuVWOkF2WyC0Hl9ACIQ+FUZ5UJQm8wiFWRlCC7p8JKnthVDUX3SuQCQLlo5z2QsVcgTTMb+uR0qYV5T0NCWOOMHzP2LDvQxSCrS2FSsHKwjVXVrZDED1wx9bDQiWwwikncBRCzmF1ZoghXQepBhXCKbM/wDpADAgpgJxFhJIkiP8EPOhSjwtZLF7WSh9qpiyIBLXHPMLSRxC6JFIgUQSdtKWENUgQiTRQzBBXNSUpMloQGvucXuQiirnUhs5QE6nV8xFHEIyCYlFt0B3R+MKYd8EcS5yFRIjuJQrlN49JXZxW+sdiuoWhz3AIK47qCK4VIkYECiRykGF5jghEsYIxh+2EoJ2jDMhIzxVOUqBmtowZ7y5dfDS9kuZoLxkIi0F3eSWFkUknLEQhJ3JRYpQAlMUED+O/WBEaMdiGPptBDDXuvDP75JiB3jwwF0QBRzRMTKlocUvZpMoQMBi1gAzBRVDGcOiEXIL+nwhgADGb9CXoxmADAByS0BmvPrhV2R0FmkTGFlSwgkQRKpPRiUNzCzwPFsZEGGNeSBsV6GyR7m8IY4fhjMVwkGeluwWSTwVYexkAIU2IwQVkghCpNAyC3UjIRCjEk85KExY2ixogMB2n1t4dOX96sdZ2qwFigu5BIie4vkzYsSCHGzybCwEEyEBQAn6vJATpGGOrRzSXRQxS9IQQrrkeIMd4Atflv3Og8fWin4vJJAdoGBQkJQUIdYwga08JhC1BoJhzwIJVZ2ZIb+5CI0nCFcttrSLGPSYRQrigNtRTiHP2NXaHRQqqojpFIALIogl2BCEqYQ7KuEYmWTXswhVkaFhCDCCU6QBJgGodqcIkVvljSGludgzrcMRJwdoXZ+Q9oRthp61Y+ZKgBw1TAtrAzdjAmG5SJnBTszxRIl8pVFZctyY/A0DmlQbFtIOpB4Du3HdEl1fq2NE0uMh65ES7LJxu2YYtR8XkmwoEIQMYVCXCYXw73eFaKQCILYQrAH8FI4O/IGzM3MPUkKSkesaGovT70mlg0Zw1mtuQ2w/TFWWFkSV6IFJ1DhS1iQ3AUaLwVKZB0Jjl8C8jpNkGCkFgALAMEWJlpRhKD+wg53CHjOSHEKwfN9jn4XpG+3dt8+/cIQhUhV1zNvss03BvGRQ4LipWCyJgBmA+Y22aY3sDImIIQEtbZAJFrveuon7uVX6e6vwYutXvgVCUkQURe+hgRZM+YWUPD+BTBgGpWtzGJJQP74xw9Tg7Sy1hcIQOhwXH3+7/D6IPavKVMYFpsXCCKwN8OLXmgyk1kCLHAxY0i/C4AQLpCcr/E+k7nAjBsISniCJ0iEr8mCrRCAium/EjwK2CMIBoIIpyEaeTEZwBq+r/G2q5AmiCoIzZqXKyCISbiCK+AAk7kEKDA3RUAELjgwY2AFc1tAiiuGSMigDTLBKPyW/zsKreD+itMimlsopAs4slvYPTUzvNsQhdYqCG77mvIjiFg4BHYbiGEgsCXgAouZBCdoAogjCIOqNStABD28jFaIIgGUwkAkCBQUszy6nViYAilgw9IiQCRogpvIhcy7AMAyiAP8ugarCQK8gCc7iFhABImSl1rbul4Ihfaas9GoM0H8sYeJmBlygDPTECq0iUTzjv1TGENYPisoiktYmUe0iVybF0wkCFbwPi2YhCKqBSeQPIv5vQKsOFE0hl9YguRZAvjIuiTAtF6wgifggmJohRC4AAoYABUItaM4BTuwAx9TRaJBGt4RCBmQAVi0tlYLER0SBeRBAugpBp1DgjAciF7+kIIlgIIHNAZLtMOGaAUTKwh+bD5jgLXIuTWEWD6TgQ/xUgTbaL95UYJBesHdu4AMEAsUMccOW0ejibcVkBhL8AN5lEWFWAWr0ycdcsHNmSEusAJhJIgFbEiBmEkkgMW1+ZqwK4QlWAJOLIhiQL4zy4WvYQX5M5koEY0DiIF+W4imo4MbKsmiaUfDEaAIgAHgyQmCM7g5kgRz2zpBSkqKuAIlaIKIRAo124A+4ipfNAh+dIKldMry8xCO2z6GMKdOysqGsR/8wRJjWEmC+IVBGIQ/gAHF7MsxsRWZ6zkcikEnsMWJnBdbzIlJcB5sDAwsaIIpKKJbeIINiAILogL++UsCnDSGn/sqkVwIXliROrDFXhgFUlDIwDSUYsgFXrCE0siF/au6uSpHUsoFMlyISSikQ3CMYGAFzWSKSzCovcpNLbGXuFuIXyiFUoCWYvge2eyIOKA93eyTqAI8zPKyXqAEgtShQ0ieJ8jNgRAGz1stLDyKVBgOODg2rCRPbLGn3vqt8QSyWJCEyWyYYojPgzAu5JI+BPsXY+ml/oQVZsq+B3AcE6TAedHAUgKWWkCv0EnQg+AF1iBJCZ3Q/+svzgDEwNkFSbBP6Mgqk9mACykGAW2UKbiADTjIgfgFCBsNErwJx6qDVLgDPFBHE12ml1PBEpsfr0OCGRQbKxD+KOhciFj4GhVDiF4ohEKwUYO4hEPoniOSvC7FCSdFghc1BlHAAi7oBbPBiJhMiFm4AzUYDjRgLiRVFYzxIa54TKPZha9hz4E4QEe7IH6cFzYkiF3wviQwUFwzmYxrSpOhOIO4hUlo1LxaGYUqBsDgxXkxs5LJAAKYK9HJ0j8BTDztlg0pRM/AoYc81IPoBeSjUrH7mg0lCDPdNZyoBeYzBstzRIPQrOTxR5xoRiQApyuQHAiqQaxJng1QJFQsr0x6G1RNVahIJQD4Dh2K1EKqk4z8vta7Aq0yiOnMQYPohSkILRO7Rxk1Bis1GShdicj71qP4BZuCIEV4uBqsVUr+CIQMIkeC+CSQo9ZqFYRnGpRg0AIo6Eak+D0McEuDMFNEVQqJe1eEcNd5edFBhQl+1EFjOATngYLRwUuTmVWKiAUIKVYqmIT4+5okCIUo+zUUKQbVibaBNZQ9zTZDWcCbM4pc4COFcFVCVYpiaLInAJZWmIIpkFjY+RpkKQZKMAQpeIKyowiysqlpagpfZU5R4Cr5a0jQ4BLSeJZTaASqtNkpEcvpa4o/hSi1LYgPNJklu4pYSJqFyAUrmIKHXQmaoogmA7/a4gIpQIRciIIliAIyFaQYjALAuFgkUAJ1WxmC8JDx2Jo+PdspibkI+J1XGZvkc1s5u0BFuJBemMj+C7BVY2AxziIIV+XZg2iyC4DXhBgGUejSXugaaTqEYti9czsI1+QK2LzcuIJJFGSMZuy94KKCKDjd6PBVoW3XRICmYJ0XuT0ILSwkJOgYYkyoxHmCJIAC2isGRNACdouFJ1CCKUAr6+wSxA1erDjPoiBexqAELljaUoLbyHGC7KiTXLg/5jSISegCURjZ76uJq0UCMbFLmBg+JVheMHmUSEHT9uU62QMugYhfL7sFAd3HlXG0ZEQCJzgzUYACJzBKgQDGqK1AxVuITWND60We0UHWWgtUo5gY5AorCX6MCu3LC/6wXyCwjl2IYdhdJGA3hjSIXEDXKEAEZBngJCj+hkTAAr1NCK5SgjjzViUwiCaowH68Cg+1F3zB4ekIwBlBnMCsBXixgi0GJ4Yw1FtjW4qU3CFOAiuAkF2N3LAUoiY4wl5NHs8siBiMnD1eil9wmR9FzjBGMBJjwYuRksAsBoS6uC0u4YOYSThbiQvcSIJwuPFbAsA4wNhdClKUoVzQuVxliERwgidgzTFxUw2CU0TGCUgQDQiwXAtuyRK8X+VZGUGWEUN4gil4QEroTNZs3JWJSISFAqpltVaw0Ye8gAg+CD/kEgcgVViuiVWdQt000yiQggtIAv9NimCgBF5ewJVZZaX4BZu8hM81BmAMvrDMAjq71DC+1mzNZkD+I9B5FohOnZfOApZiONmBWKImuII4E4jUVJ7RCQb426wLKD5a4cccZQJwbopipej6sAiMKE5Y/hBXC7JblqzUbWCEwEVxgxZSnpck4sh54Vnl1DqDEAWsEajcxQuXHr+RXohb4IJCyBdFnZeHTgqYHQt2NkFsK8yP9rLOnZcZXYyujQU75taBEL+9GhPHsOmvoUScgBxPzZdgUARJEDzQiMrSCOO01a++M7cLCIZDiAItCFGbMFRJiNFCWjiBWNd56b1dKIRDKFkwMdSXzgl3nmS8mFyIWAHzuNyYm7kTBOnI4kcoIFegVgqEjhzTMFMkOMtC4DYqAIxbMMMleGv+pQgGBWO+0P5jcztezPBdYBtYubo6yGhstyJcJqCCAQYbpgiGKLgAJcA0gSjWnWwIgijW1DaGW5hhpciFWgiFdT6KUKhARo0Qd+MSuGNf/ntfEItt3LrsQ84Ji4MC1mzEJFAId1bhldCcxVUVUZgCK/jJ53AU1WpFR6bg6r6Y7JYsQEYC4D4KVyXDuyY/hRCF+xOR0U7ah+O7Gg66kqxQxI4WiNGpVuAfBh9E+1aVW4gCJpiCX9hUvPDVc8YJ/C7vATOZHdVkKZiCsFnprwHi+kAEQwg7PfrE13uBLzZtL0uUA/iDctEddxQIdwPL29ngIfqr6dOCJFCCwcaJcC3+JDsshkK4Ag9PCP9eGZyOHp37W4EwBN6LIC3gghpvzkKGGSlcgQgI7XgzHGOAhAhAUx7WDqj+GuIWlG1lgpTZ7/HDgLO8CV+lxGJQswtIBPpO01pbAvDYhVog6tpq5RR4ZfLcSsk985WohVqIBO6pBUDnkLn+mtYdlANEmYK4AgzAgPKuCV8tV6NoRCxtpZbl5Zro2s5CaCfw8jBjgWmuZvIEhvvBBFCABEuAARagsV+ABEgQBBgIdmjultRdGTjH3D+yVV+VYoXgZyT6Oy3AgpgZYLcs5+lFCkucoJVZcYVIhCi4Aks/iF+QARHkHkRm8wh5tbudF/SGFQskCHf+dgIu0GdjqEHQbjc1i5lWsLTeniF91e+bMGBJaETqDe6CENML6GTGwCCNxuF1z5BgIHc3wSt9zZVya9njholLaPFEoPgrkAKc7klQ/sdNw2ykKPitTulBJCQQJgidk5xnvwqhXtGBlfjAqYULdyKFgDwkMOUgE9eVyPYL+Pbb8MiLHoiSR4hcKAR3xuzrIkAlsA1E8CvOjnmTAW6bkpz6TcB3I417X8ecn5VcgIIkeJeG2F2TNwZ8NRnDq3EtqLWgt+BiZfuVqBNXfcRDeIIoaK1cUDM0zQUM2GKanNhf9p/swPQDHoiHRHiY+7StkXAkJXtYOcCG92/xRoiUrQX+QlICKC8IVjCENaZUc+PlYrgEK4gCcWfugbgEc3OC1FWCL7kFLKACK9CCmAmGhDQGyEM+M4sOPsfA0OcCRDh0hCAREwHe/ixjp0JK99MQXkUIin333U0CECL3WLACKjh9LRB3RNjDKFjYhjjAOVwZf/yFC2SFS7ArSVDyeaGCn8UMQyBKQxDm76N5DlFf6jbR5neqCwSIJMOMGbOCBAmGSwQXEtz1BEmSgxEPUkTEAckSUQw3cuzokWCiKJKMFQMpkmQukoi0tDIGhSIShQsPwZyihCIGVhQvxPJY8iPQjpNgTirGKljQpEqXbiwmyAEAACtWMa1q9SrWrFVrydD+6vWr10sTEzFkpWiXxyU4uVyACVHtwQ0/wTIsJoULwVq1CHKRgigik1tlMRx8stHQzihuQzm5oGSSRy0YMGiha5CiFbqagVpKERUCpLmbR5MubYyr6dSag4nqxfRWW4pY3CZJ5BYt6VZRRMWaJGqvMVEvKRpmuAtR0Y29Jl5gTHFJE4pNSG5UBFNSLVGirRaCWUh16VowBABA4OcX+PTqg6Je7940YpixmCMqCReJEqyJmjAx5FFUFFJcMKALg+TCykMUJcFULldYoVEuTiDhhChuPbQEZARddlB0GAEXVCxacOEaQcVIOOF272kVzB8IRPVCTyrKmFp7M5JGiRP+THxHWiyxHWTMLVZIIZMxrKilhEZWVUiRIh05NOCAIRAkyXAcglXMREj4mASJHbqFBBRJsRKbEuiVyAorKdqYVSQRRBVBJGquOSdTtcRAp2a1+HhIaVQcdEGGHRXTi5xAFaNFTQuJphhFGxjTyxRYSOIjImBJoiBMCun05UFMJDUFTP7hWVosL0SFwB9Ijboqe3eyqlV8hXlVTCFRcCFaL5cUylBIVAgWFBZJJFElEpUVokQSVyw0JkVTsEJFFLdQAtN0YPUSSi/EpnQpp0goG5QUob5K2i9+uCgADB+OO26N61bF7UFTeDXFgGBihQhFSvQyjCFcxMgrTEx0+kv+KDBVChKyS0QRBRWsGHMJTE6MdovAFxhS0oluYTDFrgSJQiaJQLWSiLruflQMJBBElYIlJrParstJFTPcEillVUxbseFWVYIHISKwlkkuBCpmooRSEqIURVGXKIggol2JXo40WjGxsCLhfTCFyRQrVmBhM1BJI9FkzEGtskJUDgjScdmqwdw2UKJMMtBSt0TRBBY/4QyTmVURu6G9DHVXEUPWUYSXzIZoITRpGX/5RN+j9QKTo3AD1YsMBwCALtiWq/e2518Vc19mfGFGkhXQMf7RkhPim68UlCg6XBSiFcOoE6rSWUy3spq26Z9sw13MICoDoAImoadnp/KbMRv+F0OUcDH1bFomsfNGIRqCVC2FJFLMLze5Fehpv3J0y788HhJKVUBDBIWPEmslCtQMHeg+ElI0HxQmKkT1wCCEt7+tuGqAXoENRTzlEfxNzRi5IIbHYrMEujnwCY5x3wWWlhTdlSYRUCqdUlghPkUUgwOxaaBVimFBJDAhZPRyixIoaMCO5CIG5DlADEI2Q62AbodMucwFZOcRYjmsFyf6DrHIZoyMZQkJ8oqbWpiQvs1sACadM9Rw5PULLViBSDRMBPs6YhvZTIlT8vOhT54SFRZQBY1X6aEbxZSIWLSCgwyJhfhKR7SDtIJYB+MdTOBygdU1RXwsPFkhrEA+pRT+gzAUmeJHBncQJQIlFLHRH0e4ABMNavJLKIwjRzrzmdCAUilwLGVdFIGIlIgFIp9cyDAu8S8vIQE5+erbfZIgSSYUqhZukaGiMiYqpviJQwLcY7GU4jiHbQR4tSRIwYjTRVQCRTzkQYAMIkdNhpySmiYaUE6qKBHhAa4nlJjCFToXiogkQRG09GJTxHnIjjhzCSnUwhKUMAUdAoUmFFnkAmEixOowYQmII0ghhGUFAaKSRVARAAsgSU3mbdMj8AKTj5BwRY8E4yVJONhHgsEK9LwTKK1cAjM58jyMTIIL8ATKhnjJyGJWRiliUwIHc8XPplSUKcVo05vi1FOK9nT+I68rjJeWwNBhMNQYY0RCE0QTC0SkFCWGyljGDhqUJlY1KMVgaDG40IQoqMuDWnplUbNSixdcM1Xb7KYBB9WR5VTkFo1xQslKEworWKGssakpSUpSjEmskiO0ssJTDyK8rJlvPY1sVFo3U65zvSCvPoTr/iRxEybkNRZSgAJI3ZMLoGFhIYZEgmu4EBErDCcJhCTI5GAiPMM5kSHB6FdjSRPbP+00slpBmZsAwDJQYlZ5wWDOGUcVLoo4DJDMhRinimM/wVTpiUppRSEGaoxg3KclqWlCbKrl29GsggVpW5vJesECNhIkEi9YgUSLGzrgDehVtCSLMTJKCbG5Rbz+JFkuFHqhhSgUoqkcOWptb5aIQkgUSFDYABQ2Ol66YE5znFvXH1pRDBZw0w8dIWocj0uR5OJJfAP6leOgCpMsLWEJC3WqdzQTKyRoECs9Q+uEHTuIB0RFBS1jFQxcw+GFvEDCII6jJABjWRvFYicXWEgrmoifwrBCCo4zDH8xaa0sAXQprYMqQ34hiTDmeD2YQBsAAGhg02R4wwuBQRs5Il/lyfVVvvzTghbyC39S5BY2o8QV3KKFaREuT0J6KVOgqyUFAkl8T1hzmbNSQ/KoYFS9WAEbMQEJQUDgBZFgCC/+IAg/wOAPf/hxpN8znAtolSSOxEiJHpJR/BiDCxj+uMCLXzW6P3VhaNdJtXuIh2rPzRnYmimGFZqQa16xM4xD4ZSniqEILnR1Vb1gbWiJVVpjc/sjxe62V8RW4zCzgoIIlmeTGPXMY98C0kDJBRccR2Jwg/vb9MbKqzWalFxkqRDTdliTn6MZSlRRCdXGiiSmYIV8H8Se9763vR/uU7dIeCO/kIISlFBgLtiqFbTMz5WY43CvFGLWMPmWxLsd8ZQrJdAH2VpQMjaF5UJE0HTJhVvseBUmmFwJLnY3y4nblaCbBhFTKPC+e+eWHV3JkP4Fkfe2g79HAiUR+dQC0IkOt5VrncIrhomPlDAXRCDrCpAWhVqasGSOTCI2jwb+GIf42mCCOJPpXS8l1+/+FZcjQXEUaW2gnDlMkrCifkHROVAaQ5HViUILhxCeJAOnd+IWcPIyukQhknQJLkAmF6GIXORhrkIOId4r+OsyU559EBBaHo1592EwuDBNGymCCUrAOiMFdAG7XxTlCAasZiSp1K8st4Wtj+PrZ1gM9+FXRYK3KUwYp/sm9I2/1t0MIqJghd5eJRaGP/5lh57qiz59PaFXCrHsfpo0MeTLlAQ//K2S/P3dgpZgrvN6eq+U6h0E0RxJREGp35yI2WvFH/KJX46l2NhQghJcwBLEyCRYwcWYxu10CvdtRDAkCMopDx4NyLgZIOVFmnPBBCv+RERbTAefOUHWAYX3NVUuaFNqhEITJMEUQBBdqFtMgCAqHdl4KSDRxMauMRcjHYIWHNyr3MITYMAT5BZD0NVBUIFmOE7z6aAbzV/zxELWFEuWTEfWGGFdgNdB4NijHAIilJ5XYBcJAYWXMBpHEFrDaUYXKMgFUuH+WOH+iMJE6MslbNZexIoKJoWiTYhH5IL4LAEMegW3XADMccRuaQn33ZnvXAkXMMETJEkxiAL7USAXPMEUVBwdggUP5lgvFIIhhIwOSYIVFAIweYQbgllHzAaUCKBX0FIBYglOFErSKMHcAYUZwtKJ/GFp8N/wfSJphGL8jV6hcUQxtQXwgQX+/vifMUgCYVzABnbELYgCUjSVCPkMUMQhRcgiWJxWARIjDyGgDqqeIP4HlCDBLgIFKxTCInUSRuxKMXmLzICKEoTWyfjIBawd4LDeZtCSd5FjnpjjeIVCIUDjvURMmHHQJSyM0FACFECBdn2EIdTL9RUDFjzB9gHFMPzJgHSMPCKBFy6EJfnI+zEEOlakZrTdQWgZQdKFMRaVPDKBE9wKWORCvfRdiTAKQLZf9CVFE9lMLsDF9XXEL+RcUPQMEjyBJxJEK7jF2hmDIbQYn9DIIbBkTHrFTFbUCJIRWIjCEzTBQUUejvEdEvxkUzAHTxAEMinELSzZqsGkR6AlEmz+APZ0RMZA4VbuoEGm1Ve+oWkg07ZlEkw0Y0dsyBk5ziHgznYQ2gXIVFD8guJ9I1B0Eq71Yl8OkB16Ds1JR2rMGI79AlwYoswUAhRgQd+MJGtuxIkMyDhuBA6C46PQRmxuZvN0puWE1RMATUKkRjGACjXyYiIogmayXSE01xUoARNIghbkzAXQJf5oJT3VywZcYMBRC24eILeFQiI8pVcEwyRcwi8Izy8kmxUcIkcIyEFM4cNApz7K4zAqRSxcgRbkZVNMXZ5tp7uoF3udBgtUHjf95SfuAlxElVL0jHR9xC3ABMgJjrAUJkMcAhRQAXhKGg5+IH+ySpsNmTH8goD+LoRu3hvg6ONcuYV6LgvluMvVJIEUpOiGzkkOGcMKLEQvhGhe4Ogn4mCrCQo/dkwxeEk1xsIlHGcKrWAwtAKMxuh6/MEquBls6eiI0ttFtSNC/cngfcS1QQHSLUQxKcGS6ZRPLVePMgUeThKTzsmlsdEqQIJ6AVATDsIg/AEMyGnyxCQiOMETKGQzIYKVuqPWiNGfoFUszBFDjCSffkQurWKa6lou6AImxAAv8IKRdlu7wc1FsWGJONIFVA5DxMowEUuZyoxUNmrbTCkq7UJ0WEzbOGEybQQkHgQH7U3wmA5FUGdSZMx8mqrJoGop4eBULoUkRMEU/OlVyKASLNv+QkTeyMEWipbIcFRjVeTCQzTBQPJqrxJoyjHQV6heElwoaQDOUS4RcSjHkmJrFWqrxO3RBYArUMymjFyUJBhCEziBTPwCFSjbuaLrRKnrw/XCQ7RTUCBCvYrhD67bHJIGFyjBBnBBYl0rv6aarzZUUqBjAcbCNDJBLPGhjOBgr0WssU1smdWjPQ6iIdSHLR7EvKVHiYJsyPor+PEXbTJEVMqWihioyl5jpbos3sHs8f0C0DQBo3LEMMhT+RnWSrwWK0SBE5hoSI1nyd3lbfKsX8bkYOkKUxAcRrSjiVCEe/KbllyA02rpTmgq1RaVyE5eMeBnR3yZpiLYgoqJk53+7XilLTlGU6dsxEVpqKHIE9/Sbb8Crle5T5Z2LUQY67I4AQZEQcIKruv5LN1u0RSgVTFIAiI0ruO+rMuGlRN0Yubyp912nctdAAes4Od2XehqnTie7mamLtGtKh+xbl+6Lr2Zhfm0XVuMq5hoQSHsrOxGGu12W9JcQAPdAiIkKkcoGhP47u9OWPAaWyN6qlYkUfOy3PMCW3ZqSUn8Qh1hBbG4Z/XWG+QS4/KFrf4YThIg70aoHk6Fr8RdL7DlwhQoG1NlyYNWxSVQgRZgrvs67/j2Jc7BBPP2L9HBL7gFoSsSMBUaMLjFgoQ4pQLTIQNHMAXPiH/GGc3CQGq461X+EAoF8m8Hp0Z5pgYIWwXb0kUwmK5H6EJqsPCEOSmUboQl1CibpQYkQKxm9MIgpIYgpEYk4DAK73ANm4Yl3Glp9LBpIPF4zSgNy3ATk8Yf2DAQW4sQl0YUm8YPm0YwKDFpcPFoWAIo8HBqXPF4dWhd5EIuQMIKYMIqxAIavzEcx7EczzEa+wEd3zEex/EgWEIe9zEdr4Ig+LEgx/EfDLIh58IeH7Ig10IhK7IfN7Ij5zEkREIk9zEkVzIdk7FvrSkG6/CcxgAMhHIMjDIplzIpy8Aoo3IMqDIrp7Ipn7Irv7Isy3Ioy0Arr3Is47Iu33IpozIMwPIuA/MtqzItz7L+MMcyL8dyLSezMc/yLf9yMwezLvcyMv8yLw9zLkdzLVOzNGNzN48yNEezMyOzK/9vWtVCFUOxFJuGDosxFk+x6KTzaHjxZhSxOx/xw6HzGK9zabRzEvswPM+KPG8GPWuGJWDwPN8zuP0CQtdzarQCL2hxQxt0asRCCfvUsH0xjXCwVWS0Q9PbL6zXRGfFBefFCuhoVYT0f7oXfH2FSrdRK8DAGluLSC9EMDhAsCbFSxNEZ6TLV5Q0ScDAC3h0B9e0MWDCe2mwVwB1LbCAp/20Ua/CC7xAQMtfgNKbGWtGVj8KSjPFVp+GOXPEV9cQWGy1Led0UGS1JajAC+wrUGT+9SCwgE9/xVc7KV1r2JDtcTG8wF1DaQzkQjA8MViAKL0x8WYEGY3aaFcvhWG/GUd3RGMbAyREwEhXRWNjgiX4AVoDRWSD9Vc0tgyEhodqRWcLNlY0di9EwHB5BWqvcqVJ1mKXMV5vxlbfaFnPNkHA2W3HMEmMdlZktQzAQAQotVZ89S/wtVdktSC0jGlfxVa3gof19ZBpdmIn95OOti74tkvHtm/9AqZVdgd/t6apF2j8tHhvGgTAACSYd6ZBgiXAAAsQtVVwsqYRBHUv9Xmz9GZr6XkHdnxby3kbA2Kz9ypoWnm9wEDP93mv1Qo89uWwAJxWsIRPOIVXuIVfOIahZ7iGbziHd7iHfziIh7iIjziJl7iJnziKp7iKrziLt7iLvziMx7iMzziN17iN3ziO57iO7ziP97iP/ziQB7mQDzmRF7mRHzmSJ7mSLzmTN7mTPzmUR7mUTzmVV7mVXzmWZ7mWbzmXd7mXfzmYh7mYjzmZl7mZnzmap7marzmbt7mbvzmcx7mczzmd17md3zme57me7zmf97mf/zmgB7p6BAQAOw==;" vertex="1" parent="iIjDCpFlkyaxMlVBKjSk-85">
          <mxGeometry x="126.39999999999999" y="61.53846153846153" width="76.25025641025641" height="82.05128205128206" as="geometry" />
        </mxCell>
        <mxCell id="iIjDCpFlkyaxMlVBKjSk-8" value="Unsupervised Learning&lt;div&gt;&amp;nbsp;- K-Means&lt;/div&gt;" style="text;html=1;align=center;verticalAlign=middle;resizable=0;points=[];autosize=1;strokeColor=none;fillColor=none;" vertex="1" parent="iIjDCpFlkyaxMlVBKjSk-85">
          <mxGeometry x="88.56125714285717" y="127.17948717948718" width="150" height="40" as="geometry" />
        </mxCell>
        <mxCell id="iIjDCpFlkyaxMlVBKjSk-12" style="edgeStyle=orthogonalEdgeStyle;rounded=0;orthogonalLoop=1;jettySize=auto;html=1;exitX=1;exitY=0.5;exitDx=0;exitDy=0;entryX=0;entryY=0.5;entryDx=0;entryDy=0;" edge="1" parent="iIjDCpFlkyaxMlVBKjSk-85" source="iIjDCpFlkyaxMlVBKjSk-9" target="iIjDCpFlkyaxMlVBKjSk-11">
          <mxGeometry relative="1" as="geometry" />
        </mxCell>
        <mxCell id="iIjDCpFlkyaxMlVBKjSk-9" value="Color Extraction" style="rounded=0;whiteSpace=wrap;html=1;fillColor=#FFC191;" vertex="1" parent="iIjDCpFlkyaxMlVBKjSk-85">
          <mxGeometry x="243.77142857142854" y="4.102564102564102" width="99.3142857142857" height="41.02564102564103" as="geometry" />
        </mxCell>
        <mxCell id="iIjDCpFlkyaxMlVBKjSk-77" style="edgeStyle=orthogonalEdgeStyle;rounded=0;orthogonalLoop=1;jettySize=auto;html=1;entryX=0;entryY=0.5;entryDx=0;entryDy=0;" edge="1" parent="iIjDCpFlkyaxMlVBKjSk-85" source="iIjDCpFlkyaxMlVBKjSk-11" target="iIjDCpFlkyaxMlVBKjSk-76">
          <mxGeometry relative="1" as="geometry" />
        </mxCell>
        <mxCell id="iIjDCpFlkyaxMlVBKjSk-11" value="Save Dominant Colors as features" style="rounded=0;whiteSpace=wrap;html=1;fillColor=#FFC191;" vertex="1" parent="iIjDCpFlkyaxMlVBKjSk-85">
          <mxGeometry x="370.1714285714285" y="4.102564102564102" width="99.3142857142857" height="41.02564102564103" as="geometry" />
        </mxCell>
        <mxCell id="iIjDCpFlkyaxMlVBKjSk-13" value="Image&lt;div&gt;Backbone&lt;/div&gt;" style="shape=trapezoid;perimeter=trapezoidPerimeter;whiteSpace=wrap;html=1;fixedSize=1;fillColor=#7ABDFF;" vertex="1" parent="iIjDCpFlkyaxMlVBKjSk-85">
          <mxGeometry x="243.77142857142854" y="201.02564102564102" width="108.34285714285714" height="49.230769230769226" as="geometry" />
        </mxCell>
        <mxCell id="iIjDCpFlkyaxMlVBKjSk-29" style="edgeStyle=orthogonalEdgeStyle;rounded=0;orthogonalLoop=1;jettySize=auto;html=1;entryX=0.25;entryY=1;entryDx=0;entryDy=0;" edge="1" parent="iIjDCpFlkyaxMlVBKjSk-85" source="iIjDCpFlkyaxMlVBKjSk-15" target="iIjDCpFlkyaxMlVBKjSk-27">
          <mxGeometry relative="1" as="geometry" />
        </mxCell>
        <mxCell id="iIjDCpFlkyaxMlVBKjSk-15" value="" style="html=1;whiteSpace=wrap;shape=isoCube2;backgroundOutline=1;isoAngle=15;fillColor=#6B6B6B;" vertex="1" parent="iIjDCpFlkyaxMlVBKjSk-85">
          <mxGeometry x="379.2" y="201.02564102564102" width="45.14285714285714" height="49.230769230769226" as="geometry" />
        </mxCell>
        <mxCell id="iIjDCpFlkyaxMlVBKjSk-16" value="Vanilla Image&amp;nbsp;&lt;div&gt;feature extraction&lt;/div&gt;" style="text;html=1;align=center;verticalAlign=middle;resizable=0;points=[];autosize=1;strokeColor=none;fillColor=none;" vertex="1" parent="iIjDCpFlkyaxMlVBKjSk-85">
          <mxGeometry x="352.1142857142857" y="254.3594871794872" width="120" height="40" as="geometry" />
        </mxCell>
        <mxCell id="iIjDCpFlkyaxMlVBKjSk-17" style="edgeStyle=orthogonalEdgeStyle;rounded=0;orthogonalLoop=1;jettySize=auto;html=1;exitX=1;exitY=0.5;exitDx=0;exitDy=0;entryX=0;entryY=0.5;entryDx=0;entryDy=0;entryPerimeter=0;" edge="1" parent="iIjDCpFlkyaxMlVBKjSk-85" source="iIjDCpFlkyaxMlVBKjSk-13" target="iIjDCpFlkyaxMlVBKjSk-15">
          <mxGeometry relative="1" as="geometry" />
        </mxCell>
        <mxCell id="iIjDCpFlkyaxMlVBKjSk-25" style="edgeStyle=orthogonalEdgeStyle;rounded=0;orthogonalLoop=1;jettySize=auto;html=1;exitX=1;exitY=0.5;exitDx=0;exitDy=0;" edge="1" parent="iIjDCpFlkyaxMlVBKjSk-85" source="iIjDCpFlkyaxMlVBKjSk-21" target="iIjDCpFlkyaxMlVBKjSk-24">
          <mxGeometry relative="1" as="geometry" />
        </mxCell>
        <mxCell id="iIjDCpFlkyaxMlVBKjSk-21" value="Labels" style="rounded=0;whiteSpace=wrap;html=1;fillColor=#7ABDFF;" vertex="1" parent="iIjDCpFlkyaxMlVBKjSk-85">
          <mxGeometry x="243.77142857142854" y="123.07692307692307" width="99.3142857142857" height="41.02564102564103" as="geometry" />
        </mxCell>
        <mxCell id="iIjDCpFlkyaxMlVBKjSk-28" style="edgeStyle=orthogonalEdgeStyle;rounded=0;orthogonalLoop=1;jettySize=auto;html=1;entryX=0.25;entryY=0;entryDx=0;entryDy=0;" edge="1" parent="iIjDCpFlkyaxMlVBKjSk-85" source="iIjDCpFlkyaxMlVBKjSk-24" target="iIjDCpFlkyaxMlVBKjSk-27">
          <mxGeometry relative="1" as="geometry">
            <Array as="points">
              <mxPoint x="505.59999999999997" y="143.5897435897436" />
            </Array>
          </mxGeometry>
        </mxCell>
        <mxCell id="iIjDCpFlkyaxMlVBKjSk-24" value="" style="html=1;whiteSpace=wrap;shape=isoCube2;backgroundOutline=1;isoAngle=15;fillColor=#6B6B6B;" vertex="1" parent="iIjDCpFlkyaxMlVBKjSk-85">
          <mxGeometry x="379.2" y="118.97435897435898" width="45.14285714285714" height="49.230769230769226" as="geometry" />
        </mxCell>
        <mxCell id="iIjDCpFlkyaxMlVBKjSk-26" value="Vanilla Text Features" style="text;html=1;align=center;verticalAlign=middle;resizable=0;points=[];autosize=1;strokeColor=none;fillColor=none;" vertex="1" parent="iIjDCpFlkyaxMlVBKjSk-85">
          <mxGeometry x="343.0857142857143" y="168.2051282051282" width="130" height="30" as="geometry" />
        </mxCell>
        <mxCell id="iIjDCpFlkyaxMlVBKjSk-27" value="Feature Enhancer" style="rounded=0;whiteSpace=wrap;html=1;fillColor=#7ABDFF;" vertex="1" parent="iIjDCpFlkyaxMlVBKjSk-85">
          <mxGeometry x="478.5142857142857" y="155.8974358974359" width="108.34285714285714" height="49.230769230769226" as="geometry" />
        </mxCell>
        <mxCell id="iIjDCpFlkyaxMlVBKjSk-37" style="edgeStyle=orthogonalEdgeStyle;rounded=0;orthogonalLoop=1;jettySize=auto;html=1;entryX=0.5;entryY=0;entryDx=0;entryDy=0;" edge="1" parent="iIjDCpFlkyaxMlVBKjSk-85" source="iIjDCpFlkyaxMlVBKjSk-30" target="iIjDCpFlkyaxMlVBKjSk-36">
          <mxGeometry relative="1" as="geometry">
            <Array as="points">
              <mxPoint x="767.4285714285713" y="143.5897435897436" />
            </Array>
          </mxGeometry>
        </mxCell>
        <mxCell id="iIjDCpFlkyaxMlVBKjSk-65" style="edgeStyle=orthogonalEdgeStyle;rounded=0;orthogonalLoop=1;jettySize=auto;html=1;entryX=0.5;entryY=0;entryDx=0;entryDy=0;" edge="1" parent="iIjDCpFlkyaxMlVBKjSk-85" source="iIjDCpFlkyaxMlVBKjSk-30" target="iIjDCpFlkyaxMlVBKjSk-50">
          <mxGeometry relative="1" as="geometry">
            <Array as="points">
              <mxPoint x="645.5428571428571" y="102.56410256410257" />
              <mxPoint x="1029.2571428571428" y="102.56410256410257" />
            </Array>
          </mxGeometry>
        </mxCell>
        <mxCell id="iIjDCpFlkyaxMlVBKjSk-69" style="edgeStyle=orthogonalEdgeStyle;rounded=0;orthogonalLoop=1;jettySize=auto;html=1;" edge="1" parent="iIjDCpFlkyaxMlVBKjSk-85" source="iIjDCpFlkyaxMlVBKjSk-30" target="iIjDCpFlkyaxMlVBKjSk-68">
          <mxGeometry relative="1" as="geometry">
            <Array as="points">
              <mxPoint x="645.5428571428571" y="102.56410256410257" />
            </Array>
          </mxGeometry>
        </mxCell>
        <mxCell id="iIjDCpFlkyaxMlVBKjSk-30" value="" style="html=1;whiteSpace=wrap;shape=isoCube2;backgroundOutline=1;isoAngle=15;fillColor=#6B6B6B;" vertex="1" parent="iIjDCpFlkyaxMlVBKjSk-85">
          <mxGeometry x="622.9714285714285" y="118.97435897435898" width="45.14285714285714" height="49.230769230769226" as="geometry" />
        </mxCell>
        <mxCell id="iIjDCpFlkyaxMlVBKjSk-31" value="Image Features" style="text;html=1;align=center;verticalAlign=middle;resizable=0;points=[];autosize=1;strokeColor=none;fillColor=none;" vertex="1" parent="iIjDCpFlkyaxMlVBKjSk-85">
          <mxGeometry x="604.9142857142857" y="168.2051282051282" width="110" height="30" as="geometry" />
        </mxCell>
        <mxCell id="iIjDCpFlkyaxMlVBKjSk-38" style="edgeStyle=orthogonalEdgeStyle;rounded=0;orthogonalLoop=1;jettySize=auto;html=1;entryX=0.5;entryY=1;entryDx=0;entryDy=0;" edge="1" parent="iIjDCpFlkyaxMlVBKjSk-85" source="iIjDCpFlkyaxMlVBKjSk-32" target="iIjDCpFlkyaxMlVBKjSk-36">
          <mxGeometry relative="1" as="geometry">
            <mxPoint x="713.2571428571429" y="168.2051282051282" as="targetPoint" />
          </mxGeometry>
        </mxCell>
        <mxCell id="iIjDCpFlkyaxMlVBKjSk-32" value="" style="html=1;whiteSpace=wrap;shape=isoCube2;backgroundOutline=1;isoAngle=15;fillColor=#6B6B6B;" vertex="1" parent="iIjDCpFlkyaxMlVBKjSk-85">
          <mxGeometry x="622.9714285714285" y="205.12820512820514" width="45.14285714285714" height="49.230769230769226" as="geometry" />
        </mxCell>
        <mxCell id="iIjDCpFlkyaxMlVBKjSk-33" value="Text Features" style="text;html=1;align=center;verticalAlign=middle;resizable=0;points=[];autosize=1;strokeColor=none;fillColor=none;" vertex="1" parent="iIjDCpFlkyaxMlVBKjSk-85">
          <mxGeometry x="604.9185714285713" y="259.36205128205125" width="100" height="30" as="geometry" />
        </mxCell>
        <mxCell id="iIjDCpFlkyaxMlVBKjSk-34" style="edgeStyle=orthogonalEdgeStyle;rounded=0;orthogonalLoop=1;jettySize=auto;html=1;exitX=1;exitY=0.5;exitDx=0;exitDy=0;entryX=0;entryY=0.5;entryDx=0;entryDy=0;entryPerimeter=0;" edge="1" parent="iIjDCpFlkyaxMlVBKjSk-85" source="iIjDCpFlkyaxMlVBKjSk-27" target="iIjDCpFlkyaxMlVBKjSk-30">
          <mxGeometry relative="1" as="geometry" />
        </mxCell>
        <mxCell id="iIjDCpFlkyaxMlVBKjSk-35" style="edgeStyle=orthogonalEdgeStyle;rounded=0;orthogonalLoop=1;jettySize=auto;html=1;exitX=1;exitY=0.5;exitDx=0;exitDy=0;entryX=0;entryY=0.5;entryDx=0;entryDy=0;entryPerimeter=0;" edge="1" parent="iIjDCpFlkyaxMlVBKjSk-85" source="iIjDCpFlkyaxMlVBKjSk-27" target="iIjDCpFlkyaxMlVBKjSk-32">
          <mxGeometry relative="1" as="geometry" />
        </mxCell>
        <mxCell id="iIjDCpFlkyaxMlVBKjSk-49" style="edgeStyle=orthogonalEdgeStyle;rounded=0;orthogonalLoop=1;jettySize=auto;html=1;" edge="1" parent="iIjDCpFlkyaxMlVBKjSk-85" source="iIjDCpFlkyaxMlVBKjSk-36">
          <mxGeometry relative="1" as="geometry">
            <mxPoint x="857.7142857142857" y="176.4102564102564" as="targetPoint" />
          </mxGeometry>
        </mxCell>
        <mxCell id="iIjDCpFlkyaxMlVBKjSk-36" value="Language guided&amp;nbsp;&lt;div&gt;Query Selection&lt;/div&gt;" style="rounded=0;whiteSpace=wrap;html=1;fillColor=#7ABDFF;" vertex="1" parent="iIjDCpFlkyaxMlVBKjSk-85">
          <mxGeometry x="713.2571428571429" y="151.7948717948718" width="108.34285714285714" height="49.230769230769226" as="geometry" />
        </mxCell>
        <mxCell id="iIjDCpFlkyaxMlVBKjSk-47" value="" style="group" connectable="0" vertex="1" parent="iIjDCpFlkyaxMlVBKjSk-85">
          <mxGeometry x="857.7142857142857" y="135.3846153846154" width="81.25714285714285" height="64.02461538461539" as="geometry" />
        </mxCell>
        <mxCell id="iIjDCpFlkyaxMlVBKjSk-40" value="" style="html=1;whiteSpace=wrap;shape=isoCube2;backgroundOutline=1;isoAngle=15;fillColor=#6B6B6B;direction=south;rotation=-45;" vertex="1" parent="iIjDCpFlkyaxMlVBKjSk-47">
          <mxGeometry x="-6.657287912969299" y="18.862510780969767" width="72.31954958117991" height="8.766531274225285" as="geometry" />
        </mxCell>
        <mxCell id="iIjDCpFlkyaxMlVBKjSk-45" value="" style="html=1;whiteSpace=wrap;shape=isoCube2;backgroundOutline=1;isoAngle=15;fillColor=#6B6B6B;direction=south;rotation=-45;" vertex="1" parent="iIjDCpFlkyaxMlVBKjSk-47">
          <mxGeometry x="4.46879663798146" y="27.62904205519505" width="72.31954958117991" height="8.766531274225285" as="geometry" />
        </mxCell>
        <mxCell id="iIjDCpFlkyaxMlVBKjSk-46" value="" style="html=1;whiteSpace=wrap;shape=isoCube2;backgroundOutline=1;isoAngle=15;fillColor=#6B6B6B;direction=south;rotation=-45;" vertex="1" parent="iIjDCpFlkyaxMlVBKjSk-47">
          <mxGeometry x="15.594881188932217" y="36.395573329420344" width="72.31954958117991" height="8.766531274225285" as="geometry" />
        </mxCell>
        <mxCell id="iIjDCpFlkyaxMlVBKjSk-48" value="Cross Modality&amp;nbsp;&lt;div&gt;Queries&lt;/div&gt;" style="text;html=1;align=center;verticalAlign=middle;resizable=0;points=[];autosize=1;strokeColor=none;fillColor=none;" vertex="1" parent="iIjDCpFlkyaxMlVBKjSk-85">
          <mxGeometry x="853.1999999999999" y="205.12820512820514" width="110" height="40" as="geometry" />
        </mxCell>
        <mxCell id="iIjDCpFlkyaxMlVBKjSk-61" style="edgeStyle=orthogonalEdgeStyle;rounded=0;orthogonalLoop=1;jettySize=auto;html=1;" edge="1" parent="iIjDCpFlkyaxMlVBKjSk-85" source="iIjDCpFlkyaxMlVBKjSk-50">
          <mxGeometry relative="1" as="geometry">
            <mxPoint x="1110.5142857142857" y="174.79384615384595" as="targetPoint" />
          </mxGeometry>
        </mxCell>
        <mxCell id="iIjDCpFlkyaxMlVBKjSk-50" value="Cross Modality&amp;nbsp;&lt;div&gt;Decoder&lt;/div&gt;" style="rounded=0;whiteSpace=wrap;html=1;fillColor=#FFFF57;" vertex="1" parent="iIjDCpFlkyaxMlVBKjSk-85">
          <mxGeometry x="975.0857142857142" y="150.1784615384615" width="108.34285714285714" height="49.230769230769226" as="geometry" />
        </mxCell>
        <mxCell id="iIjDCpFlkyaxMlVBKjSk-51" style="edgeStyle=orthogonalEdgeStyle;rounded=0;orthogonalLoop=1;jettySize=auto;html=1;entryX=0;entryY=0.5;entryDx=0;entryDy=0;" edge="1" parent="iIjDCpFlkyaxMlVBKjSk-85" source="iIjDCpFlkyaxMlVBKjSk-46" target="iIjDCpFlkyaxMlVBKjSk-50">
          <mxGeometry relative="1" as="geometry">
            <Array as="points">
              <mxPoint x="957.0285714285714" y="174.76923076923077" />
            </Array>
          </mxGeometry>
        </mxCell>
        <mxCell id="iIjDCpFlkyaxMlVBKjSk-57" value="" style="group" connectable="0" vertex="1" parent="iIjDCpFlkyaxMlVBKjSk-85">
          <mxGeometry x="1115.0285714285715" y="148.5046153846154" width="81.25714285714285" height="64.02461538461539" as="geometry" />
        </mxCell>
        <mxCell id="iIjDCpFlkyaxMlVBKjSk-58" value="" style="html=1;whiteSpace=wrap;shape=isoCube2;backgroundOutline=1;isoAngle=15;fillColor=#6B6B6B;direction=south;rotation=-45;" vertex="1" parent="iIjDCpFlkyaxMlVBKjSk-57">
          <mxGeometry x="-6.657287912969299" y="18.862510780969767" width="72.31954958117991" height="8.766531274225285" as="geometry" />
        </mxCell>
        <mxCell id="iIjDCpFlkyaxMlVBKjSk-59" value="" style="html=1;whiteSpace=wrap;shape=isoCube2;backgroundOutline=1;isoAngle=15;fillColor=#6B6B6B;direction=south;rotation=-45;" vertex="1" parent="iIjDCpFlkyaxMlVBKjSk-57">
          <mxGeometry x="4.46879663798146" y="27.62904205519505" width="72.31954958117991" height="8.766531274225285" as="geometry" />
        </mxCell>
        <mxCell id="iIjDCpFlkyaxMlVBKjSk-60" value="" style="html=1;whiteSpace=wrap;shape=isoCube2;backgroundOutline=1;isoAngle=15;fillColor=#6B6B6B;direction=south;rotation=-45;" vertex="1" parent="iIjDCpFlkyaxMlVBKjSk-57">
          <mxGeometry x="15.594881188932217" y="36.395573329420344" width="72.31954958117991" height="8.766531274225285" as="geometry" />
        </mxCell>
        <mxCell id="iIjDCpFlkyaxMlVBKjSk-62" value="Model Outputs" style="text;html=1;align=center;verticalAlign=middle;resizable=0;points=[];autosize=1;strokeColor=none;fillColor=none;" vertex="1" parent="iIjDCpFlkyaxMlVBKjSk-85">
          <mxGeometry x="1110.5142857142857" y="209.23076923076925" width="100" height="30" as="geometry" />
        </mxCell>
        <mxCell id="iIjDCpFlkyaxMlVBKjSk-66" style="edgeStyle=orthogonalEdgeStyle;rounded=0;orthogonalLoop=1;jettySize=auto;html=1;entryX=-0.287;entryY=0.272;entryDx=0;entryDy=0;entryPerimeter=0;" edge="1" parent="iIjDCpFlkyaxMlVBKjSk-85" source="iIjDCpFlkyaxMlVBKjSk-30" target="iIjDCpFlkyaxMlVBKjSk-40">
          <mxGeometry relative="1" as="geometry">
            <Array as="points">
              <mxPoint x="812.5714285714286" y="102.56410256410257" />
              <mxPoint x="812.5714285714286" y="102.56410256410257" />
            </Array>
          </mxGeometry>
        </mxCell>
        <mxCell id="iIjDCpFlkyaxMlVBKjSk-72" style="edgeStyle=orthogonalEdgeStyle;rounded=0;orthogonalLoop=1;jettySize=auto;html=1;entryX=0.5;entryY=0;entryDx=0;entryDy=0;" edge="1" parent="iIjDCpFlkyaxMlVBKjSk-85" source="iIjDCpFlkyaxMlVBKjSk-68" target="iIjDCpFlkyaxMlVBKjSk-71">
          <mxGeometry relative="1" as="geometry" />
        </mxCell>
        <mxCell id="iIjDCpFlkyaxMlVBKjSk-68" value="Text Features" style="rounded=0;whiteSpace=wrap;html=1;fillColor=#FFFF57;" vertex="1" parent="iIjDCpFlkyaxMlVBKjSk-85">
          <mxGeometry x="1101.4857142857143" y="77.94871794871796" width="108.34285714285714" height="49.230769230769226" as="geometry" />
        </mxCell>
        <mxCell id="iIjDCpFlkyaxMlVBKjSk-78" style="edgeStyle=orthogonalEdgeStyle;rounded=0;orthogonalLoop=1;jettySize=auto;html=1;entryX=0.25;entryY=1;entryDx=0;entryDy=0;" edge="1" parent="iIjDCpFlkyaxMlVBKjSk-85" source="iIjDCpFlkyaxMlVBKjSk-71" target="iIjDCpFlkyaxMlVBKjSk-76">
          <mxGeometry relative="1" as="geometry">
            <Array as="points">
              <mxPoint x="1354.2857142857142" y="160" />
            </Array>
          </mxGeometry>
        </mxCell>
        <mxCell id="iIjDCpFlkyaxMlVBKjSk-71" value="Generate Bounding Boxes Description" style="rounded=0;whiteSpace=wrap;html=1;fillColor=#FF6666;" vertex="1" parent="iIjDCpFlkyaxMlVBKjSk-85">
          <mxGeometry x="1236.9142857142856" y="135.3846153846154" width="108.34285714285714" height="49.230769230769226" as="geometry" />
        </mxCell>
        <mxCell id="iIjDCpFlkyaxMlVBKjSk-75" style="edgeStyle=orthogonalEdgeStyle;rounded=0;orthogonalLoop=1;jettySize=auto;html=1;entryX=0.5;entryY=1;entryDx=0;entryDy=0;" edge="1" parent="iIjDCpFlkyaxMlVBKjSk-85" source="iIjDCpFlkyaxMlVBKjSk-60" target="iIjDCpFlkyaxMlVBKjSk-71">
          <mxGeometry relative="1" as="geometry">
            <Array as="points">
              <mxPoint x="1166.4914285714285" y="201.02564102564102" />
              <mxPoint x="1291.0857142857142" y="201.02564102564102" />
            </Array>
          </mxGeometry>
        </mxCell>
        <mxCell id="iIjDCpFlkyaxMlVBKjSk-80" style="edgeStyle=orthogonalEdgeStyle;rounded=0;orthogonalLoop=1;jettySize=auto;html=1;entryX=0;entryY=0.5;entryDx=0;entryDy=0;" edge="1" parent="iIjDCpFlkyaxMlVBKjSk-85" source="iIjDCpFlkyaxMlVBKjSk-76" target="iIjDCpFlkyaxMlVBKjSk-79">
          <mxGeometry relative="1" as="geometry" />
        </mxCell>
        <mxCell id="iIjDCpFlkyaxMlVBKjSk-76" value="Combine Colors and Features" style="rounded=0;whiteSpace=wrap;html=1;fillColor=#F8C6F8;" vertex="1" parent="iIjDCpFlkyaxMlVBKjSk-85">
          <mxGeometry x="1327.1999999999998" width="108.34285714285714" height="49.230769230769226" as="geometry" />
        </mxCell>
        <mxCell id="iIjDCpFlkyaxMlVBKjSk-82" value="" style="edgeStyle=orthogonalEdgeStyle;rounded=0;orthogonalLoop=1;jettySize=auto;html=1;" edge="1" parent="iIjDCpFlkyaxMlVBKjSk-85" source="iIjDCpFlkyaxMlVBKjSk-79" target="iIjDCpFlkyaxMlVBKjSk-81">
          <mxGeometry relative="1" as="geometry" />
        </mxCell>
        <mxCell id="iIjDCpFlkyaxMlVBKjSk-79" value="Any Supervised&amp;nbsp;&lt;div&gt;learning approach&lt;/div&gt;" style="rounded=0;whiteSpace=wrap;html=1;fillColor=#F8C6F8;" vertex="1" parent="iIjDCpFlkyaxMlVBKjSk-85">
          <mxGeometry x="1471.6571428571428" width="108.34285714285714" height="49.230769230769226" as="geometry" />
        </mxCell>
        <mxCell id="iIjDCpFlkyaxMlVBKjSk-84" value="" style="edgeStyle=orthogonalEdgeStyle;rounded=0;orthogonalLoop=1;jettySize=auto;html=1;" edge="1" parent="iIjDCpFlkyaxMlVBKjSk-85" source="iIjDCpFlkyaxMlVBKjSk-81" target="iIjDCpFlkyaxMlVBKjSk-83">
          <mxGeometry relative="1" as="geometry" />
        </mxCell>
        <mxCell id="iIjDCpFlkyaxMlVBKjSk-81" value="LLM for Text Generation" style="rounded=0;whiteSpace=wrap;html=1;fillColor=#E1D5E7;" vertex="1" parent="iIjDCpFlkyaxMlVBKjSk-85">
          <mxGeometry x="1471.6571428571428" y="86.15384615384616" width="108.34285714285714" height="49.230769230769226" as="geometry" />
        </mxCell>
        <mxCell id="iIjDCpFlkyaxMlVBKjSk-83" value="Predicted Output Labels and Descriptions" style="rounded=0;whiteSpace=wrap;html=1;fillColor=#97D077;" vertex="1" parent="iIjDCpFlkyaxMlVBKjSk-85">
          <mxGeometry x="1471.6571428571428" y="168.2051282051282" width="108.34285714285714" height="49.230769230769226" as="geometry" />
        </mxCell>
      </root>
    </mxGraphModel>
  </diagram>
</mxfile>
